M48
;GenerationSoftware,Autodesk,EAGLE,9.6.2*%
;CreationDate,2021-09-20T22:19:57Z*%
FMAT,2
ICI,OFF
METRIC,TZ,000.000
T3C0.305
T2C1.016
T1C3.302
%
G90
M71
T1
X34239Y57150
X72748Y57150
X111255Y57150
X149763Y57150
X3762Y79200
X42268Y79200
X80777Y79200
X119286Y79200
T2
X31699Y6350
X31699Y8890
X70208Y6350
X70208Y8890
X108715Y6350
X108715Y8890
X147223Y6350
X147223Y8890
X6302Y130000
X6302Y127460
X44808Y130000
X44808Y127460
X83317Y130000
X83317Y127460
X121826Y130000
X121826Y127460
T3
X37052Y18469
X36960Y25995
X36144Y10414
X21793Y59055
X21793Y60325
X21793Y61595
X21793Y62865
X21793Y64135
X30175Y64135
X30175Y62865
X30175Y61595
X30175Y60325
X30175Y59055
X28524Y4588
X23190Y5731
X18618Y3699
X17602Y3699
X7442Y4969
X27381Y55896
X27381Y57166
X24714Y57166
X24714Y56023
X30175Y57166
X25984Y51959
X6299Y12589
X35890Y29337
X6299Y13589
X19634Y11049
X24341Y11594
X32991Y28160
X27051Y12827
X32994Y25560
X26213Y12827
X32969Y7366
X14652Y12065
X6045Y14859
X32999Y33200
X15888Y13102
X32999Y35740
X15189Y13589
X32999Y30660
X16346Y12213
X16629Y10922
X3800Y13503
X14152Y10287
X2489Y12700
X13634Y9620
X1219Y12192
X1346Y8128
X2489Y7341
X12649Y9271
X6426Y9252
X11125Y9017
X11379Y11049
X7442Y11049
X19507Y5080
X21184Y5074
X20345Y5080
X25349Y8128
X71600Y23060
X66398Y12446
X45316Y16272
X47602Y18050
X43411Y17923
X43284Y38243
X45316Y39894
X47475Y38243
X50396Y51832
X48872Y53991
X50523Y56150
X53063Y56277
X54714Y54118
X53063Y51832
X60302Y57150
X60302Y53991
X61953Y51959
X66525Y53864
X71732Y38243
X69700Y39894
X67541Y38243
X67287Y17923
X69319Y16399
X75634Y12970
X75561Y18469
X75469Y25995
X74653Y10414
X60302Y59055
X60302Y60325
X60302Y61595
X60302Y62865
X60302Y64135
X68684Y64135
X68684Y62865
X68684Y61595
X68684Y60325
X68684Y59055
X67033Y4588
X61699Y5731
X57127Y3699
X56111Y3699
X45951Y4969
X65890Y55896
X65890Y57166
X63223Y57166
X63223Y56023
X68684Y57166
X64493Y51959
X44808Y12589
X74399Y29337
X44808Y13589
X58143Y11049
X62850Y11594
X71500Y28160
X65560Y12827
X71503Y25560
X64722Y12827
X71478Y7366
X53161Y12065
X44554Y14859
X71508Y33200
X54397Y13102
X71508Y35740
X53698Y13589
X71508Y30660
X54855Y12213
X55138Y10922
X42309Y13503
X52661Y10287
X40998Y12700
X52142Y9620
X39728Y12192
X39855Y8128
X40998Y7341
X51158Y9271
X44935Y9252
X49634Y9017
X49888Y11049
X45951Y11049
X58016Y5080
X59693Y5074
X58854Y5080
X63858Y8128
X110107Y23060
X104905Y12446
X83823Y16272
X86109Y18050
X81918Y17923
X81791Y38243
X83823Y39894
X85982Y38243
X88903Y51832
X87379Y53991
X89030Y56150
X91570Y56277
X93221Y54118
X91570Y51832
X98809Y57150
X98809Y53991
X100460Y51959
X105032Y53864
X110239Y38243
X108207Y39894
X106048Y38243
X105794Y17923
X107826Y16399
X114141Y12970
X114068Y18469
X113976Y25995
X113160Y10414
X98809Y59055
X98809Y60325
X98809Y61595
X98809Y62865
X98809Y64135
X107191Y64135
X107191Y62865
X107191Y61595
X107191Y60325
X107191Y59055
X105540Y4588
X100206Y5731
X95634Y3699
X94618Y3699
X84458Y4969
X104397Y55896
X104397Y57166
X101730Y57166
X101730Y56023
X107191Y57166
X103000Y51959
X83315Y12589
X112906Y29337
X83315Y13589
X96650Y11049
X101357Y11594
X110007Y28160
X104066Y12827
X110010Y25560
X103228Y12827
X109985Y7366
X91668Y12065
X83061Y14859
X110015Y33200
X92903Y13102
X110015Y35740
X92205Y13589
X110015Y30660
X93361Y12213
X93644Y10922
X80816Y13503
X91168Y10287
X79505Y12700
X90649Y9620
X78235Y12192
X78362Y8128
X79505Y7341
X89665Y9271
X83442Y9252
X88141Y9017
X88395Y11049
X84458Y11049
X96523Y5080
X98199Y5074
X97361Y5080
X102365Y8128
X148615Y23060
X143413Y12446
X122331Y16272
X124617Y18050
X120426Y17923
X120299Y38243
X122331Y39894
X124490Y38243
X127411Y51832
X125887Y53991
X127538Y56150
X130078Y56277
X131729Y54118
X130078Y51832
X137317Y57150
X137317Y53991
X138968Y51959
X143540Y53864
X148747Y38243
X146715Y39894
X144556Y38243
X144302Y17923
X146334Y16399
X152649Y12970
X152576Y18469
X152484Y25995
X151668Y10414
X137317Y59055
X137317Y60325
X137317Y61595
X137317Y62865
X137317Y64135
X145699Y64135
X145699Y62865
X145699Y61595
X145699Y60325
X145699Y59055
X144048Y4588
X138714Y5731
X134142Y3699
X133126Y3699
X122966Y4969
X142905Y55896
X142905Y57166
X140238Y57166
X140238Y56023
X145699Y57166
X141508Y51959
X121823Y12589
X151414Y29337
X121823Y13589
X135158Y11049
X139865Y11594
X148515Y28160
X142575Y12827
X148519Y25560
X141737Y12827
X148493Y7366
X130177Y12065
X121569Y14859
X148523Y33200
X131412Y13102
X148523Y35740
X130713Y13589
X148523Y30660
X131870Y12213
X132153Y10922
X119325Y13503
X129677Y10287
X118013Y12700
X129158Y9620
X116743Y12192
X116870Y8128
X118013Y7341
X128173Y9271
X121950Y9252
X126649Y9017
X126903Y11049
X122966Y11049
X135031Y5080
X136708Y5074
X135870Y5080
X140873Y8128
X4910Y113290
X10112Y123904
X31194Y120078
X28908Y118300
X33099Y118427
X33226Y98107
X31194Y96456
X29035Y98107
X26114Y84518
X27638Y82359
X25987Y80200
X23447Y80073
X21796Y82232
X23447Y84518
X16208Y79200
X16208Y82359
X14557Y84391
X9985Y82486
X4778Y98107
X6810Y96456
X8969Y98107
X9223Y118427
X7191Y119951
X876Y123380
X949Y117881
X1041Y110355
X1857Y125936
X16208Y77295
X16208Y76025
X16208Y74755
X16208Y73485
X16208Y72215
X7826Y72215
X7826Y73485
X7826Y74755
X7826Y76025
X7826Y77295
X9477Y131762
X14811Y130619
X19383Y132651
X20399Y132651
X30559Y131381
X10620Y80454
X10620Y79184
X13287Y79184
X13287Y80327
X7826Y79184
X12017Y84391
X31702Y123761
X2111Y107013
X31702Y122761
X18367Y125301
X13660Y124756
X5010Y108190
X10950Y123523
X5007Y110790
X11788Y123523
X5032Y128984
X23349Y124285
X31956Y121491
X5002Y103150
X22113Y123248
X5002Y100610
X22812Y122761
X5002Y105690
X21655Y124137
X21372Y125428
X34201Y122847
X23849Y126063
X35512Y123650
X24367Y126729
X36782Y124158
X36655Y128222
X35512Y129009
X25352Y127079
X31575Y127098
X26876Y127333
X26622Y125301
X30559Y125301
X18494Y131270
X16817Y131276
X17656Y131270
X12652Y128222
X43416Y113290
X48618Y123904
X69700Y120078
X67414Y118300
X71605Y118427
X71732Y98107
X69700Y96456
X67541Y98107
X64620Y84518
X66144Y82359
X64493Y80200
X61953Y80073
X60302Y82232
X61953Y84518
X54714Y79200
X54714Y82359
X53063Y84391
X48491Y82486
X43284Y98107
X45316Y96456
X47475Y98107
X47729Y118427
X45697Y119951
X39382Y123380
X39455Y117881
X39547Y110355
X40363Y125936
X54714Y77295
X54714Y76025
X54714Y74755
X54714Y73485
X54714Y72215
X46332Y72215
X46332Y73485
X46332Y74755
X46332Y76025
X46332Y77295
X47983Y131762
X53317Y130619
X57889Y132651
X58905Y132651
X69065Y131381
X49126Y80454
X49126Y79184
X51793Y79184
X51793Y80327
X46332Y79184
X50523Y84391
X70208Y123761
X40617Y107013
X70208Y122761
X56873Y125301
X52166Y124756
X43516Y108190
X49456Y123523
X43513Y110790
X50295Y123523
X43538Y128984
X61855Y124285
X70462Y121491
X43508Y103150
X60620Y123248
X43508Y100610
X61318Y122761
X43508Y105690
X60161Y124137
X59878Y125428
X72707Y122847
X62355Y126063
X74018Y123650
X62874Y126729
X75288Y124158
X75161Y128222
X74018Y129009
X63858Y127079
X70081Y127098
X65382Y127333
X65128Y125301
X69065Y125301
X57000Y131270
X55324Y131276
X56162Y131270
X51158Y128222
X81925Y113290
X87127Y123904
X108209Y120078
X105923Y118300
X110114Y118427
X110241Y98107
X108209Y96456
X106050Y98107
X103129Y84518
X104653Y82359
X103002Y80200
X100462Y80073
X98811Y82232
X100462Y84518
X93223Y79200
X93223Y82359
X91572Y84391
X87000Y82486
X81793Y98107
X83825Y96456
X85984Y98107
X86238Y118427
X84206Y119951
X77891Y123380
X77964Y117881
X78056Y110355
X78872Y125936
X93223Y77295
X93223Y76025
X93223Y74755
X93223Y73485
X93223Y72215
X84841Y72215
X84841Y73485
X84841Y74755
X84841Y76025
X84841Y77295
X86492Y131762
X91826Y130619
X96398Y132651
X97414Y132651
X107574Y131381
X87635Y80454
X87635Y79184
X90302Y79184
X90302Y80327
X84841Y79184
X89032Y84391
X108717Y123761
X79126Y107013
X108717Y122761
X95382Y125301
X90675Y124756
X82025Y108190
X87965Y123523
X82022Y110790
X88803Y123523
X82047Y128984
X100364Y124285
X108971Y121491
X82017Y103150
X99128Y123248
X82017Y100610
X99827Y122761
X82017Y105690
X98670Y124137
X98387Y125428
X111216Y122847
X100864Y126063
X112527Y123650
X101383Y126729
X113797Y124158
X113670Y128222
X112527Y129009
X102367Y127079
X108590Y127098
X103891Y127333
X103637Y125301
X107574Y125301
X95509Y131270
X93833Y131276
X94671Y131270
X89667Y128222
X120434Y113290
X125636Y123904
X146718Y120078
X144432Y118300
X148623Y118427
X148750Y98107
X146718Y96456
X144559Y98107
X141638Y84518
X143162Y82359
X141511Y80200
X138971Y80073
X137320Y82232
X138971Y84518
X131732Y79200
X131732Y82359
X130081Y84391
X125509Y82486
X120302Y98107
X122334Y96456
X124493Y98107
X124747Y118427
X122715Y119951
X116400Y123380
X116473Y117881
X116565Y110355
X117381Y125936
X131732Y77295
X131732Y76025
X131732Y74755
X131732Y73485
X131732Y72215
X123350Y72215
X123350Y73485
X123350Y74755
X123350Y76025
X123350Y77295
X125001Y131762
X130335Y130619
X134907Y132651
X135923Y132651
X146083Y131381
X126144Y80454
X126144Y79184
X128811Y79184
X128811Y80327
X123350Y79184
X127541Y84391
X147226Y123761
X117635Y107013
X147226Y122761
X133891Y125301
X129184Y124756
X120534Y108190
X126474Y123523
X120531Y110790
X127312Y123523
X120556Y128984
X138873Y124285
X147480Y121491
X120526Y103150
X137637Y123248
X120526Y100610
X138336Y122761
X120526Y105690
X137179Y124137
X136896Y125428
X149725Y122847
X139373Y126063
X151036Y123650
X139892Y126729
X152306Y124158
X152179Y128222
X151036Y129009
X140876Y127079
X147099Y127098
X142400Y127333
X142146Y125301
X146083Y125301
X134018Y131270
X132342Y131276
X133180Y131270
X128176Y128222
X33091Y23060
X27889Y12446
X6807Y16272
X9093Y18050
X4902Y17923
X4775Y38243
X6807Y39894
X8966Y38243
X11887Y51832
X10363Y53991
X36999Y46100
X36999Y41900
X35699Y44000
X999Y41900
X999Y46100
X2299Y44000
X12014Y56150
X14554Y56277
X75508Y46100
X75508Y41900
X74208Y44000
X39508Y41900
X39508Y46100
X40808Y44000
X16205Y54118
X14554Y51832
X114015Y46100
X114015Y41900
X112715Y44000
X78015Y41900
X78015Y46100
X79315Y44000
X21793Y57150
X21793Y53991
X152523Y46100
X152523Y41900
X151223Y44000
X116523Y41900
X116523Y46100
X117823Y44000
X23444Y51959
X28016Y53864
X1002Y90250
X1002Y94450
X2302Y92350
X37002Y94450
X37002Y90250
X35702Y92350
X33223Y38243
X31191Y39894
X39508Y90250
X39508Y94450
X40808Y92350
X75508Y94450
X75508Y90250
X74208Y92350
X29032Y38243
X28778Y17923
X78017Y90250
X78017Y94450
X79317Y92350
X114017Y94450
X114017Y90250
X112717Y92350
X30810Y16399
X37125Y12970
X116526Y90250
X116526Y94450
X117826Y92350
X152526Y94450
X152526Y90250
X151226Y92350
M30