G04 EAGLE Gerber RS-274X export*
G75*
%MOMM*%
%FSLAX34Y34*%
%LPD*%
%INSoldermask Bottom*%
%IPPOS*%
%AMOC8*
5,1,8,0,0,1.08239X$1,22.5*%
G01*
%ADD10C,0.838200*%
%ADD11R,1.473200X0.838200*%
%ADD12C,2.082800*%
%ADD13R,1.473200X0.863600*%
%ADD14C,3.505200*%
%ADD15R,0.553200X2.153200*%
%ADD16C,0.863600*%
%ADD17C,1.203200*%
%ADD18C,1.270000*%
%ADD19C,1.703200*%

G36*
X3949Y896029D02*
X3949Y896029D01*
X3958Y896032D01*
X3984Y896034D01*
X7818Y896868D01*
X7827Y896872D01*
X7852Y896878D01*
X11528Y898249D01*
X11536Y898255D01*
X11561Y898264D01*
X15004Y900144D01*
X15011Y900151D01*
X15034Y900163D01*
X18175Y902515D01*
X18181Y902523D01*
X18202Y902538D01*
X20977Y905313D01*
X20981Y905321D01*
X21000Y905339D01*
X23351Y908480D01*
X23355Y908490D01*
X23371Y908510D01*
X25251Y911954D01*
X25253Y911963D01*
X25266Y911986D01*
X26637Y915663D01*
X26638Y915672D01*
X26647Y915697D01*
X27481Y919531D01*
X27480Y919540D01*
X27486Y919566D01*
X27766Y923480D01*
X27764Y923489D01*
X27766Y923515D01*
X27486Y927429D01*
X27485Y927433D01*
X27485Y927436D01*
X27482Y927442D01*
X27481Y927464D01*
X26647Y931298D01*
X26642Y931307D01*
X26637Y931332D01*
X25266Y935008D01*
X25260Y935016D01*
X25251Y935041D01*
X23371Y938484D01*
X23364Y938491D01*
X23351Y938514D01*
X21000Y941655D01*
X20992Y941661D01*
X20977Y941682D01*
X18202Y944457D01*
X18194Y944461D01*
X18175Y944480D01*
X15034Y946831D01*
X15025Y946835D01*
X15004Y946851D01*
X11561Y948731D01*
X11551Y948733D01*
X11528Y948746D01*
X7852Y950117D01*
X7843Y950118D01*
X7818Y950127D01*
X3984Y950961D01*
X3974Y950960D01*
X3949Y950966D01*
X35Y951246D01*
X10Y951241D01*
X-16Y951244D01*
X-57Y951226D01*
X-101Y951217D01*
X-120Y951198D01*
X-144Y951188D01*
X-169Y951150D01*
X-201Y951118D01*
X-206Y951093D01*
X-221Y951071D01*
X-232Y950997D01*
X-232Y940997D01*
X-230Y940990D01*
X-231Y940983D01*
X-210Y940924D01*
X-193Y940863D01*
X-187Y940858D01*
X-185Y940852D01*
X-135Y940813D01*
X-87Y940771D01*
X-80Y940770D01*
X-75Y940766D01*
X-2Y940749D01*
X2716Y940535D01*
X5348Y939903D01*
X7849Y938867D01*
X10157Y937453D01*
X12215Y935695D01*
X13973Y933637D01*
X15387Y931329D01*
X16423Y928828D01*
X17055Y926196D01*
X17267Y923497D01*
X17055Y920799D01*
X16423Y918167D01*
X15387Y915666D01*
X13973Y913358D01*
X12215Y911300D01*
X10157Y909542D01*
X7849Y908128D01*
X5348Y907092D01*
X2716Y906460D01*
X-2Y906246D01*
X-9Y906243D01*
X-16Y906244D01*
X-74Y906219D01*
X-133Y906196D01*
X-137Y906191D01*
X-144Y906188D01*
X-179Y906135D01*
X-216Y906084D01*
X-217Y906077D01*
X-221Y906071D01*
X-232Y905997D01*
X-232Y895997D01*
X-225Y895972D01*
X-227Y895946D01*
X-205Y895907D01*
X-193Y895863D01*
X-173Y895846D01*
X-161Y895823D01*
X-121Y895801D01*
X-87Y895771D01*
X-62Y895767D01*
X-39Y895755D01*
X35Y895749D01*
X3949Y896029D01*
G37*
G36*
X1159192Y896029D02*
X1159192Y896029D01*
X1159201Y896032D01*
X1159227Y896034D01*
X1163061Y896868D01*
X1163069Y896872D01*
X1163095Y896878D01*
X1166771Y898249D01*
X1166779Y898255D01*
X1166804Y898264D01*
X1170247Y900144D01*
X1170254Y900151D01*
X1170277Y900163D01*
X1173418Y902515D01*
X1173424Y902523D01*
X1173445Y902538D01*
X1176220Y905313D01*
X1176224Y905321D01*
X1176243Y905339D01*
X1178594Y908480D01*
X1178598Y908490D01*
X1178613Y908510D01*
X1180494Y911954D01*
X1180496Y911963D01*
X1180509Y911986D01*
X1181880Y915663D01*
X1181880Y915672D01*
X1181890Y915697D01*
X1182724Y919531D01*
X1182723Y919540D01*
X1182729Y919566D01*
X1183009Y923480D01*
X1183007Y923489D01*
X1183009Y923515D01*
X1182729Y927429D01*
X1182727Y927433D01*
X1182728Y927436D01*
X1182725Y927442D01*
X1182724Y927464D01*
X1181890Y931298D01*
X1181885Y931307D01*
X1181880Y931332D01*
X1180509Y935008D01*
X1180503Y935016D01*
X1180494Y935041D01*
X1178613Y938484D01*
X1178607Y938491D01*
X1178594Y938514D01*
X1176243Y941655D01*
X1176235Y941661D01*
X1176220Y941682D01*
X1173445Y944457D01*
X1173437Y944461D01*
X1173418Y944480D01*
X1170277Y946831D01*
X1170268Y946835D01*
X1170247Y946851D01*
X1166804Y948731D01*
X1166794Y948733D01*
X1166771Y948746D01*
X1163095Y950117D01*
X1163085Y950118D01*
X1163061Y950127D01*
X1159227Y950961D01*
X1159217Y950960D01*
X1159192Y950966D01*
X1155278Y951246D01*
X1155253Y951241D01*
X1155227Y951244D01*
X1155186Y951226D01*
X1155141Y951217D01*
X1155123Y951198D01*
X1155099Y951188D01*
X1155074Y951150D01*
X1155042Y951118D01*
X1155036Y951093D01*
X1155022Y951071D01*
X1155011Y950997D01*
X1155011Y940997D01*
X1155013Y940990D01*
X1155011Y940983D01*
X1155032Y940924D01*
X1155050Y940863D01*
X1155056Y940858D01*
X1155058Y940852D01*
X1155108Y940813D01*
X1155155Y940771D01*
X1155163Y940770D01*
X1155168Y940766D01*
X1155241Y940749D01*
X1157959Y940535D01*
X1160591Y939903D01*
X1163092Y938867D01*
X1165400Y937453D01*
X1167458Y935695D01*
X1169216Y933637D01*
X1170630Y931329D01*
X1171666Y928828D01*
X1172298Y926196D01*
X1172510Y923497D01*
X1172298Y920799D01*
X1171666Y918167D01*
X1170630Y915666D01*
X1169216Y913358D01*
X1167458Y911300D01*
X1165400Y909542D01*
X1163092Y908128D01*
X1160591Y907092D01*
X1157959Y906460D01*
X1155241Y906246D01*
X1155234Y906243D01*
X1155227Y906244D01*
X1155169Y906219D01*
X1155110Y906196D01*
X1155106Y906191D01*
X1155099Y906188D01*
X1155064Y906135D01*
X1155027Y906084D01*
X1155026Y906077D01*
X1155022Y906071D01*
X1155011Y905997D01*
X1155011Y895997D01*
X1155018Y895972D01*
X1155016Y895946D01*
X1155037Y895907D01*
X1155050Y895863D01*
X1155070Y895846D01*
X1155082Y895823D01*
X1155121Y895801D01*
X1155155Y895771D01*
X1155181Y895767D01*
X1155204Y895755D01*
X1155278Y895749D01*
X1159192Y896029D01*
G37*
G36*
X389013Y896029D02*
X389013Y896029D01*
X389022Y896032D01*
X389048Y896034D01*
X392882Y896868D01*
X392891Y896872D01*
X392916Y896878D01*
X396592Y898249D01*
X396600Y898255D01*
X396625Y898264D01*
X400068Y900144D01*
X400075Y900151D01*
X400098Y900163D01*
X403239Y902515D01*
X403245Y902523D01*
X403266Y902538D01*
X406041Y905313D01*
X406045Y905321D01*
X406064Y905339D01*
X408415Y908480D01*
X408419Y908490D01*
X408435Y908510D01*
X410315Y911954D01*
X410317Y911963D01*
X410330Y911986D01*
X411701Y915663D01*
X411702Y915672D01*
X411711Y915697D01*
X412545Y919531D01*
X412544Y919540D01*
X412550Y919566D01*
X412830Y923480D01*
X412828Y923489D01*
X412830Y923515D01*
X412550Y927429D01*
X412549Y927433D01*
X412549Y927436D01*
X412546Y927442D01*
X412545Y927464D01*
X411711Y931298D01*
X411706Y931307D01*
X411701Y931332D01*
X410330Y935008D01*
X410324Y935016D01*
X410315Y935041D01*
X408435Y938484D01*
X408428Y938491D01*
X408415Y938514D01*
X406064Y941655D01*
X406056Y941661D01*
X406041Y941682D01*
X403266Y944457D01*
X403258Y944461D01*
X403239Y944480D01*
X400098Y946831D01*
X400089Y946835D01*
X400068Y946851D01*
X396625Y948731D01*
X396615Y948733D01*
X396592Y948746D01*
X392916Y950117D01*
X392907Y950118D01*
X392882Y950127D01*
X389048Y950961D01*
X389038Y950960D01*
X389013Y950966D01*
X385099Y951246D01*
X385074Y951241D01*
X385048Y951244D01*
X385007Y951226D01*
X384963Y951217D01*
X384944Y951198D01*
X384920Y951188D01*
X384895Y951150D01*
X384863Y951118D01*
X384858Y951093D01*
X384843Y951071D01*
X384832Y950997D01*
X384832Y940997D01*
X384834Y940990D01*
X384833Y940983D01*
X384854Y940924D01*
X384871Y940863D01*
X384877Y940858D01*
X384879Y940852D01*
X384929Y940813D01*
X384977Y940771D01*
X384984Y940770D01*
X384989Y940766D01*
X385062Y940749D01*
X387780Y940535D01*
X390412Y939903D01*
X392913Y938867D01*
X395221Y937453D01*
X397279Y935695D01*
X399037Y933637D01*
X400451Y931329D01*
X401487Y928828D01*
X402119Y926196D01*
X402331Y923497D01*
X402119Y920799D01*
X401487Y918167D01*
X400451Y915666D01*
X399037Y913358D01*
X397279Y911300D01*
X395221Y909542D01*
X392913Y908128D01*
X390412Y907092D01*
X387780Y906460D01*
X385062Y906246D01*
X385055Y906243D01*
X385048Y906244D01*
X384990Y906219D01*
X384931Y906196D01*
X384927Y906191D01*
X384920Y906188D01*
X384885Y906135D01*
X384848Y906084D01*
X384847Y906077D01*
X384843Y906071D01*
X384832Y905997D01*
X384832Y895997D01*
X384839Y895972D01*
X384837Y895946D01*
X384859Y895907D01*
X384871Y895863D01*
X384891Y895846D01*
X384903Y895823D01*
X384943Y895801D01*
X384977Y895771D01*
X385002Y895767D01*
X385025Y895755D01*
X385099Y895749D01*
X389013Y896029D01*
G37*
G36*
X774102Y896029D02*
X774102Y896029D01*
X774111Y896032D01*
X774137Y896034D01*
X777971Y896868D01*
X777980Y896872D01*
X778006Y896878D01*
X781682Y898249D01*
X781690Y898255D01*
X781714Y898264D01*
X785158Y900144D01*
X785165Y900151D01*
X785188Y900163D01*
X788329Y902515D01*
X788335Y902523D01*
X788356Y902538D01*
X791130Y905313D01*
X791135Y905321D01*
X791153Y905339D01*
X793505Y908480D01*
X793508Y908490D01*
X793524Y908510D01*
X795404Y911954D01*
X795407Y911963D01*
X795419Y911986D01*
X796790Y915663D01*
X796791Y915672D01*
X796800Y915697D01*
X797634Y919531D01*
X797634Y919540D01*
X797640Y919566D01*
X797919Y923480D01*
X797917Y923489D01*
X797919Y923515D01*
X797640Y927429D01*
X797638Y927433D01*
X797638Y927436D01*
X797636Y927442D01*
X797634Y927464D01*
X796800Y931298D01*
X796796Y931307D01*
X796790Y931332D01*
X795419Y935008D01*
X795413Y935016D01*
X795404Y935041D01*
X793524Y938484D01*
X793517Y938491D01*
X793505Y938514D01*
X791153Y941655D01*
X791146Y941661D01*
X791130Y941682D01*
X788356Y944457D01*
X788347Y944461D01*
X788329Y944480D01*
X785188Y946831D01*
X785179Y946835D01*
X785158Y946851D01*
X781714Y948731D01*
X781705Y948733D01*
X781682Y948746D01*
X778006Y950117D01*
X777996Y950118D01*
X777971Y950127D01*
X774137Y950961D01*
X774128Y950960D01*
X774102Y950966D01*
X770189Y951246D01*
X770163Y951241D01*
X770137Y951244D01*
X770096Y951226D01*
X770052Y951217D01*
X770034Y951198D01*
X770010Y951188D01*
X769985Y951150D01*
X769953Y951118D01*
X769947Y951093D01*
X769933Y951071D01*
X769922Y950997D01*
X769922Y940997D01*
X769924Y940990D01*
X769922Y940983D01*
X769943Y940924D01*
X769961Y940863D01*
X769966Y940858D01*
X769969Y940852D01*
X770018Y940813D01*
X770066Y940771D01*
X770073Y940770D01*
X770079Y940766D01*
X770151Y940749D01*
X772869Y940535D01*
X775501Y939903D01*
X778002Y938867D01*
X780310Y937453D01*
X782368Y935695D01*
X784126Y933637D01*
X785541Y931329D01*
X786577Y928828D01*
X787208Y926196D01*
X787421Y923497D01*
X787208Y920799D01*
X786577Y918167D01*
X785541Y915666D01*
X784126Y913358D01*
X782368Y911300D01*
X780310Y909542D01*
X778002Y908128D01*
X775501Y907092D01*
X772869Y906460D01*
X770151Y906246D01*
X770145Y906243D01*
X770137Y906244D01*
X770080Y906219D01*
X770021Y906196D01*
X770016Y906191D01*
X770010Y906188D01*
X769975Y906135D01*
X769937Y906084D01*
X769937Y906077D01*
X769933Y906071D01*
X769922Y905997D01*
X769922Y895997D01*
X769929Y895972D01*
X769927Y895946D01*
X769948Y895907D01*
X769961Y895863D01*
X769980Y895846D01*
X769993Y895823D01*
X770032Y895801D01*
X770066Y895771D01*
X770092Y895767D01*
X770115Y895755D01*
X770189Y895749D01*
X774102Y896029D01*
G37*
G36*
X774077Y412531D02*
X774077Y412531D01*
X774086Y412535D01*
X774112Y412536D01*
X777946Y413370D01*
X777955Y413375D01*
X777980Y413380D01*
X781656Y414752D01*
X781664Y414757D01*
X781689Y414766D01*
X785132Y416647D01*
X785139Y416654D01*
X785162Y416666D01*
X788303Y419017D01*
X788309Y419025D01*
X788330Y419041D01*
X791105Y421815D01*
X791109Y421824D01*
X791128Y421842D01*
X793479Y424983D01*
X793483Y424992D01*
X793499Y425013D01*
X795379Y428457D01*
X795381Y428466D01*
X795394Y428489D01*
X796765Y432165D01*
X796766Y432175D01*
X796775Y432199D01*
X797609Y436033D01*
X797608Y436043D01*
X797614Y436069D01*
X797894Y439982D01*
X797892Y439992D01*
X797894Y440018D01*
X797614Y443931D01*
X797613Y443936D01*
X797613Y443939D01*
X797610Y443945D01*
X797609Y443967D01*
X796775Y447801D01*
X796770Y447809D01*
X796765Y447835D01*
X795394Y451511D01*
X795388Y451519D01*
X795379Y451543D01*
X793499Y454987D01*
X793492Y454994D01*
X793479Y455017D01*
X791128Y458158D01*
X791120Y458164D01*
X791105Y458185D01*
X788330Y460959D01*
X788322Y460964D01*
X788303Y460983D01*
X785162Y463334D01*
X785153Y463337D01*
X785132Y463353D01*
X781689Y465234D01*
X781679Y465236D01*
X781656Y465248D01*
X777980Y466620D01*
X777971Y466620D01*
X777946Y466630D01*
X774112Y467464D01*
X774102Y467463D01*
X774077Y467469D01*
X770163Y467749D01*
X770138Y467743D01*
X770112Y467747D01*
X770071Y467729D01*
X770027Y467719D01*
X770008Y467701D01*
X769984Y467690D01*
X769959Y467652D01*
X769927Y467621D01*
X769922Y467595D01*
X769907Y467574D01*
X769896Y467500D01*
X769896Y457500D01*
X769898Y457493D01*
X769897Y457486D01*
X769918Y457427D01*
X769935Y457366D01*
X769941Y457361D01*
X769943Y457354D01*
X769993Y457316D01*
X770041Y457274D01*
X770048Y457273D01*
X770053Y457268D01*
X770126Y457252D01*
X772844Y457038D01*
X775476Y456406D01*
X777977Y455370D01*
X780285Y453956D01*
X782343Y452198D01*
X784101Y450139D01*
X785515Y447831D01*
X786551Y445331D01*
X787183Y442698D01*
X787395Y440000D01*
X787183Y437302D01*
X786551Y434669D01*
X785515Y432169D01*
X784101Y429861D01*
X782343Y427802D01*
X780285Y426044D01*
X777977Y424630D01*
X775476Y423594D01*
X772844Y422962D01*
X770126Y422748D01*
X770119Y422746D01*
X770112Y422747D01*
X770054Y422721D01*
X769995Y422699D01*
X769991Y422693D01*
X769984Y422690D01*
X769949Y422637D01*
X769912Y422587D01*
X769911Y422580D01*
X769907Y422574D01*
X769896Y422500D01*
X769896Y412500D01*
X769903Y412475D01*
X769901Y412449D01*
X769923Y412409D01*
X769935Y412366D01*
X769955Y412349D01*
X769967Y412326D01*
X770007Y412304D01*
X770041Y412274D01*
X770066Y412270D01*
X770089Y412257D01*
X770163Y412251D01*
X774077Y412531D01*
G37*
G36*
X389013Y412531D02*
X389013Y412531D01*
X389022Y412535D01*
X389048Y412536D01*
X392882Y413370D01*
X392891Y413375D01*
X392916Y413380D01*
X396592Y414752D01*
X396600Y414757D01*
X396625Y414766D01*
X400068Y416647D01*
X400075Y416654D01*
X400098Y416666D01*
X403239Y419017D01*
X403245Y419025D01*
X403266Y419041D01*
X406041Y421815D01*
X406045Y421824D01*
X406064Y421842D01*
X408415Y424983D01*
X408419Y424992D01*
X408435Y425013D01*
X410315Y428457D01*
X410317Y428466D01*
X410330Y428489D01*
X411701Y432165D01*
X411702Y432175D01*
X411711Y432199D01*
X412545Y436033D01*
X412544Y436043D01*
X412550Y436069D01*
X412830Y439982D01*
X412828Y439992D01*
X412830Y440018D01*
X412550Y443931D01*
X412549Y443936D01*
X412549Y443939D01*
X412546Y443945D01*
X412545Y443967D01*
X411711Y447801D01*
X411706Y447809D01*
X411701Y447835D01*
X410330Y451511D01*
X410324Y451519D01*
X410315Y451543D01*
X408435Y454987D01*
X408428Y454994D01*
X408415Y455017D01*
X406064Y458158D01*
X406056Y458164D01*
X406041Y458185D01*
X403266Y460959D01*
X403258Y460964D01*
X403239Y460983D01*
X400098Y463334D01*
X400089Y463337D01*
X400068Y463353D01*
X396625Y465234D01*
X396615Y465236D01*
X396592Y465248D01*
X392916Y466620D01*
X392907Y466620D01*
X392882Y466630D01*
X389048Y467464D01*
X389038Y467463D01*
X389013Y467469D01*
X385099Y467749D01*
X385074Y467743D01*
X385048Y467747D01*
X385007Y467729D01*
X384963Y467719D01*
X384944Y467701D01*
X384920Y467690D01*
X384895Y467652D01*
X384863Y467621D01*
X384858Y467595D01*
X384843Y467574D01*
X384832Y467500D01*
X384832Y457500D01*
X384834Y457493D01*
X384833Y457486D01*
X384854Y457427D01*
X384871Y457366D01*
X384877Y457361D01*
X384879Y457354D01*
X384929Y457316D01*
X384977Y457274D01*
X384984Y457273D01*
X384989Y457268D01*
X385062Y457252D01*
X387780Y457038D01*
X390412Y456406D01*
X392913Y455370D01*
X395221Y453956D01*
X397279Y452198D01*
X399037Y450139D01*
X400451Y447831D01*
X401487Y445331D01*
X402119Y442698D01*
X402331Y440000D01*
X402119Y437302D01*
X401487Y434669D01*
X400451Y432169D01*
X399037Y429861D01*
X397279Y427802D01*
X395221Y426044D01*
X392913Y424630D01*
X390412Y423594D01*
X387780Y422962D01*
X385062Y422748D01*
X385055Y422746D01*
X385048Y422747D01*
X384990Y422721D01*
X384931Y422699D01*
X384927Y422693D01*
X384920Y422690D01*
X384885Y422637D01*
X384848Y422587D01*
X384847Y422580D01*
X384843Y422574D01*
X384832Y422500D01*
X384832Y412500D01*
X384839Y412475D01*
X384837Y412449D01*
X384859Y412409D01*
X384871Y412366D01*
X384891Y412349D01*
X384903Y412326D01*
X384943Y412304D01*
X384977Y412274D01*
X385002Y412270D01*
X385025Y412257D01*
X385099Y412251D01*
X389013Y412531D01*
G37*
G36*
X1159166Y412531D02*
X1159166Y412531D01*
X1159175Y412535D01*
X1159201Y412536D01*
X1163035Y413370D01*
X1163044Y413375D01*
X1163070Y413380D01*
X1166746Y414752D01*
X1166754Y414757D01*
X1166778Y414766D01*
X1170222Y416647D01*
X1170229Y416654D01*
X1170252Y416666D01*
X1173393Y419017D01*
X1173399Y419025D01*
X1173420Y419041D01*
X1176194Y421815D01*
X1176199Y421824D01*
X1176217Y421842D01*
X1178569Y424983D01*
X1178572Y424992D01*
X1178588Y425013D01*
X1180468Y428457D01*
X1180471Y428466D01*
X1180483Y428489D01*
X1181854Y432165D01*
X1181855Y432175D01*
X1181864Y432199D01*
X1182698Y436033D01*
X1182698Y436043D01*
X1182704Y436069D01*
X1182983Y439982D01*
X1182981Y439992D01*
X1182983Y440018D01*
X1182704Y443931D01*
X1182702Y443936D01*
X1182702Y443939D01*
X1182700Y443945D01*
X1182698Y443967D01*
X1181864Y447801D01*
X1181860Y447809D01*
X1181854Y447835D01*
X1180483Y451511D01*
X1180477Y451519D01*
X1180468Y451543D01*
X1178588Y454987D01*
X1178581Y454994D01*
X1178569Y455017D01*
X1176217Y458158D01*
X1176210Y458164D01*
X1176194Y458185D01*
X1173420Y460959D01*
X1173411Y460964D01*
X1173393Y460983D01*
X1170252Y463334D01*
X1170243Y463337D01*
X1170222Y463353D01*
X1166778Y465234D01*
X1166769Y465236D01*
X1166746Y465248D01*
X1163070Y466620D01*
X1163060Y466620D01*
X1163035Y466630D01*
X1159201Y467464D01*
X1159192Y467463D01*
X1159166Y467469D01*
X1155253Y467749D01*
X1155227Y467743D01*
X1155201Y467747D01*
X1155160Y467729D01*
X1155116Y467719D01*
X1155098Y467701D01*
X1155074Y467690D01*
X1155049Y467652D01*
X1155017Y467621D01*
X1155011Y467595D01*
X1154997Y467574D01*
X1154986Y467500D01*
X1154986Y457500D01*
X1154988Y457493D01*
X1154986Y457486D01*
X1155007Y457427D01*
X1155025Y457366D01*
X1155030Y457361D01*
X1155033Y457354D01*
X1155082Y457316D01*
X1155130Y457274D01*
X1155137Y457273D01*
X1155143Y457268D01*
X1155215Y457252D01*
X1157933Y457038D01*
X1160565Y456406D01*
X1163066Y455370D01*
X1165374Y453956D01*
X1167432Y452198D01*
X1169190Y450139D01*
X1170605Y447831D01*
X1171641Y445331D01*
X1172272Y442698D01*
X1172485Y440000D01*
X1172272Y437302D01*
X1171641Y434669D01*
X1170605Y432169D01*
X1169190Y429861D01*
X1167432Y427802D01*
X1165374Y426044D01*
X1163066Y424630D01*
X1160565Y423594D01*
X1157933Y422962D01*
X1155215Y422748D01*
X1155209Y422746D01*
X1155201Y422747D01*
X1155144Y422721D01*
X1155085Y422699D01*
X1155080Y422693D01*
X1155074Y422690D01*
X1155039Y422637D01*
X1155001Y422587D01*
X1155001Y422580D01*
X1154997Y422574D01*
X1154986Y422500D01*
X1154986Y412500D01*
X1154993Y412475D01*
X1154991Y412449D01*
X1155012Y412409D01*
X1155025Y412366D01*
X1155044Y412349D01*
X1155057Y412326D01*
X1155096Y412304D01*
X1155130Y412274D01*
X1155156Y412270D01*
X1155179Y412257D01*
X1155253Y412251D01*
X1159166Y412531D01*
G37*
G36*
X3923Y412531D02*
X3923Y412531D01*
X3933Y412535D01*
X3959Y412536D01*
X7793Y413370D01*
X7801Y413375D01*
X7827Y413380D01*
X11503Y414752D01*
X11511Y414757D01*
X11535Y414766D01*
X14979Y416647D01*
X14986Y416654D01*
X15009Y416666D01*
X18150Y419017D01*
X18156Y419025D01*
X18177Y419041D01*
X20951Y421815D01*
X20956Y421824D01*
X20975Y421842D01*
X23326Y424983D01*
X23329Y424992D01*
X23345Y425013D01*
X25226Y428457D01*
X25228Y428466D01*
X25240Y428489D01*
X26612Y432165D01*
X26612Y432175D01*
X26622Y432199D01*
X27456Y436033D01*
X27455Y436043D01*
X27461Y436069D01*
X27741Y439982D01*
X27739Y439992D01*
X27741Y440018D01*
X27461Y443931D01*
X27459Y443936D01*
X27460Y443939D01*
X27457Y443945D01*
X27456Y443967D01*
X26622Y447801D01*
X26617Y447809D01*
X26612Y447835D01*
X25240Y451511D01*
X25235Y451519D01*
X25226Y451543D01*
X23345Y454987D01*
X23338Y454994D01*
X23326Y455017D01*
X20975Y458158D01*
X20967Y458164D01*
X20951Y458185D01*
X18177Y460959D01*
X18168Y460964D01*
X18150Y460983D01*
X15009Y463334D01*
X15000Y463337D01*
X14979Y463353D01*
X11535Y465234D01*
X11526Y465236D01*
X11503Y465248D01*
X7827Y466620D01*
X7817Y466620D01*
X7793Y466630D01*
X3959Y467464D01*
X3949Y467463D01*
X3923Y467469D01*
X10Y467749D01*
X-16Y467743D01*
X-41Y467747D01*
X-83Y467729D01*
X-127Y467719D01*
X-145Y467701D01*
X-169Y467690D01*
X-194Y467652D01*
X-226Y467621D01*
X-232Y467595D01*
X-246Y467574D01*
X-257Y467500D01*
X-257Y457500D01*
X-255Y457493D01*
X-257Y457486D01*
X-236Y457427D01*
X-218Y457366D01*
X-213Y457361D01*
X-210Y457354D01*
X-160Y457316D01*
X-113Y457274D01*
X-106Y457273D01*
X-100Y457268D01*
X-28Y457252D01*
X2690Y457038D01*
X5323Y456406D01*
X7823Y455370D01*
X10131Y453956D01*
X12190Y452198D01*
X13948Y450139D01*
X15362Y447831D01*
X16398Y445331D01*
X17030Y442698D01*
X17242Y440000D01*
X17030Y437302D01*
X16398Y434669D01*
X15362Y432169D01*
X13948Y429861D01*
X12190Y427802D01*
X10131Y426044D01*
X7823Y424630D01*
X5323Y423594D01*
X2690Y422962D01*
X-28Y422748D01*
X-34Y422746D01*
X-41Y422747D01*
X-99Y422721D01*
X-158Y422699D01*
X-163Y422693D01*
X-169Y422690D01*
X-204Y422637D01*
X-242Y422587D01*
X-242Y422580D01*
X-246Y422574D01*
X-257Y422500D01*
X-257Y412500D01*
X-250Y412475D01*
X-252Y412449D01*
X-231Y412409D01*
X-218Y412366D01*
X-198Y412349D01*
X-186Y412326D01*
X-147Y412304D01*
X-113Y412274D01*
X-87Y412270D01*
X-64Y412257D01*
X10Y412251D01*
X3923Y412531D01*
G37*
G36*
X765089Y895754D02*
X765089Y895754D01*
X765115Y895750D01*
X765156Y895769D01*
X765200Y895778D01*
X765219Y895797D01*
X765243Y895807D01*
X765267Y895845D01*
X765300Y895877D01*
X765305Y895902D01*
X765320Y895924D01*
X765331Y895997D01*
X765331Y905997D01*
X765329Y906004D01*
X765330Y906011D01*
X765309Y906071D01*
X765291Y906132D01*
X765286Y906136D01*
X765284Y906143D01*
X765234Y906182D01*
X765186Y906224D01*
X765179Y906225D01*
X765173Y906229D01*
X765101Y906246D01*
X762383Y906460D01*
X759751Y907092D01*
X757250Y908128D01*
X754942Y909542D01*
X752884Y911300D01*
X751126Y913358D01*
X749712Y915666D01*
X748676Y918167D01*
X748044Y920799D01*
X747831Y923497D01*
X748044Y926196D01*
X748676Y928828D01*
X749712Y931329D01*
X751126Y933637D01*
X752884Y935695D01*
X754942Y937453D01*
X757250Y938867D01*
X759751Y939903D01*
X762383Y940535D01*
X765101Y940749D01*
X765108Y940752D01*
X765115Y940750D01*
X765173Y940776D01*
X765232Y940799D01*
X765236Y940804D01*
X765243Y940807D01*
X765277Y940860D01*
X765315Y940911D01*
X765316Y940918D01*
X765320Y940924D01*
X765331Y940997D01*
X765331Y950997D01*
X765323Y951022D01*
X765325Y951048D01*
X765304Y951088D01*
X765291Y951132D01*
X765272Y951149D01*
X765260Y951172D01*
X765220Y951194D01*
X765186Y951224D01*
X765160Y951227D01*
X765138Y951240D01*
X765064Y951246D01*
X761150Y950966D01*
X761141Y950963D01*
X761115Y950961D01*
X757281Y950127D01*
X757272Y950122D01*
X757247Y950117D01*
X753570Y948746D01*
X753563Y948740D01*
X753538Y948731D01*
X750094Y946851D01*
X750088Y946844D01*
X750064Y946831D01*
X746923Y944480D01*
X746918Y944472D01*
X746897Y944457D01*
X744122Y941682D01*
X744117Y941674D01*
X744099Y941655D01*
X741747Y938514D01*
X741744Y938505D01*
X741728Y938484D01*
X739848Y935041D01*
X739846Y935031D01*
X739833Y935008D01*
X738462Y931332D01*
X738461Y931323D01*
X738452Y931298D01*
X737618Y927464D01*
X737618Y927454D01*
X737613Y927429D01*
X737333Y923515D01*
X737335Y923506D01*
X737333Y923480D01*
X737613Y919566D01*
X737616Y919557D01*
X737618Y919531D01*
X738452Y915697D01*
X738456Y915688D01*
X738462Y915663D01*
X739833Y911986D01*
X739839Y911979D01*
X739848Y911954D01*
X741728Y908510D01*
X741735Y908504D01*
X741747Y908480D01*
X744099Y905339D01*
X744107Y905334D01*
X744122Y905313D01*
X746897Y902538D01*
X746905Y902533D01*
X746923Y902515D01*
X750064Y900163D01*
X750074Y900160D01*
X750094Y900144D01*
X753538Y898264D01*
X753547Y898262D01*
X753570Y898249D01*
X757247Y896878D01*
X757256Y896877D01*
X757281Y896868D01*
X761115Y896034D01*
X761124Y896034D01*
X761150Y896029D01*
X765064Y895749D01*
X765089Y895754D01*
G37*
G36*
X1535268Y895754D02*
X1535268Y895754D01*
X1535294Y895750D01*
X1535335Y895769D01*
X1535379Y895778D01*
X1535398Y895797D01*
X1535421Y895807D01*
X1535446Y895845D01*
X1535478Y895877D01*
X1535484Y895902D01*
X1535498Y895924D01*
X1535509Y895997D01*
X1535509Y905997D01*
X1535507Y906004D01*
X1535509Y906011D01*
X1535488Y906071D01*
X1535470Y906132D01*
X1535465Y906136D01*
X1535462Y906143D01*
X1535413Y906182D01*
X1535365Y906224D01*
X1535358Y906225D01*
X1535352Y906229D01*
X1535280Y906246D01*
X1532562Y906460D01*
X1529930Y907092D01*
X1527429Y908128D01*
X1525121Y909542D01*
X1523063Y911300D01*
X1521305Y913358D01*
X1519890Y915666D01*
X1518855Y918167D01*
X1518223Y920799D01*
X1518010Y923497D01*
X1518223Y926196D01*
X1518855Y928828D01*
X1519890Y931329D01*
X1521305Y933637D01*
X1523063Y935695D01*
X1525121Y937453D01*
X1527429Y938867D01*
X1529930Y939903D01*
X1532562Y940535D01*
X1535280Y940749D01*
X1535286Y940752D01*
X1535294Y940750D01*
X1535352Y940776D01*
X1535410Y940799D01*
X1535415Y940804D01*
X1535421Y940807D01*
X1535456Y940860D01*
X1535494Y940911D01*
X1535494Y940918D01*
X1535498Y940924D01*
X1535509Y940997D01*
X1535509Y950997D01*
X1535502Y951022D01*
X1535504Y951048D01*
X1535483Y951088D01*
X1535470Y951132D01*
X1535451Y951149D01*
X1535438Y951172D01*
X1535399Y951194D01*
X1535365Y951224D01*
X1535339Y951227D01*
X1535317Y951240D01*
X1535242Y951246D01*
X1531329Y950966D01*
X1531320Y950963D01*
X1531294Y950961D01*
X1527460Y950127D01*
X1527451Y950122D01*
X1527425Y950117D01*
X1523749Y948746D01*
X1523741Y948740D01*
X1523717Y948731D01*
X1520273Y946851D01*
X1520266Y946844D01*
X1520243Y946831D01*
X1517102Y944480D01*
X1517096Y944472D01*
X1517075Y944457D01*
X1514301Y941682D01*
X1514296Y941674D01*
X1514278Y941655D01*
X1511926Y938514D01*
X1511923Y938505D01*
X1511907Y938484D01*
X1510027Y935041D01*
X1510025Y935031D01*
X1510012Y935008D01*
X1508641Y931332D01*
X1508640Y931323D01*
X1508631Y931298D01*
X1507797Y927464D01*
X1507797Y927454D01*
X1507791Y927429D01*
X1507512Y923515D01*
X1507514Y923506D01*
X1507512Y923480D01*
X1507791Y919566D01*
X1507795Y919557D01*
X1507797Y919531D01*
X1508631Y915697D01*
X1508635Y915688D01*
X1508641Y915663D01*
X1510012Y911986D01*
X1510018Y911979D01*
X1510027Y911954D01*
X1511907Y908510D01*
X1511914Y908504D01*
X1511926Y908480D01*
X1514278Y905339D01*
X1514285Y905334D01*
X1514301Y905313D01*
X1517075Y902538D01*
X1517084Y902533D01*
X1517102Y902515D01*
X1520243Y900163D01*
X1520252Y900160D01*
X1520273Y900144D01*
X1523717Y898264D01*
X1523726Y898262D01*
X1523749Y898249D01*
X1527425Y896878D01*
X1527435Y896877D01*
X1527460Y896868D01*
X1531294Y896034D01*
X1531303Y896034D01*
X1531329Y896029D01*
X1535242Y895749D01*
X1535268Y895754D01*
G37*
G36*
X1150179Y895754D02*
X1150179Y895754D01*
X1150204Y895750D01*
X1150246Y895769D01*
X1150290Y895778D01*
X1150308Y895797D01*
X1150332Y895807D01*
X1150357Y895845D01*
X1150389Y895877D01*
X1150395Y895902D01*
X1150409Y895924D01*
X1150420Y895997D01*
X1150420Y905997D01*
X1150418Y906004D01*
X1150420Y906011D01*
X1150399Y906071D01*
X1150381Y906132D01*
X1150375Y906136D01*
X1150373Y906143D01*
X1150323Y906182D01*
X1150276Y906224D01*
X1150268Y906225D01*
X1150263Y906229D01*
X1150190Y906246D01*
X1147472Y906460D01*
X1144840Y907092D01*
X1142339Y908128D01*
X1140032Y909542D01*
X1137973Y911300D01*
X1136215Y913358D01*
X1134801Y915666D01*
X1133765Y918167D01*
X1133133Y920799D01*
X1132921Y923497D01*
X1133133Y926196D01*
X1133765Y928828D01*
X1134801Y931329D01*
X1136215Y933637D01*
X1137973Y935695D01*
X1140032Y937453D01*
X1142339Y938867D01*
X1144840Y939903D01*
X1147472Y940535D01*
X1150190Y940749D01*
X1150197Y940752D01*
X1150204Y940750D01*
X1150262Y940776D01*
X1150321Y940799D01*
X1150325Y940804D01*
X1150332Y940807D01*
X1150367Y940860D01*
X1150405Y940911D01*
X1150405Y940918D01*
X1150409Y940924D01*
X1150420Y940997D01*
X1150420Y950997D01*
X1150413Y951022D01*
X1150415Y951048D01*
X1150394Y951088D01*
X1150381Y951132D01*
X1150361Y951149D01*
X1150349Y951172D01*
X1150310Y951194D01*
X1150276Y951224D01*
X1150250Y951227D01*
X1150227Y951240D01*
X1150153Y951246D01*
X1146239Y950966D01*
X1146230Y950963D01*
X1146204Y950961D01*
X1142370Y950127D01*
X1142362Y950122D01*
X1142336Y950117D01*
X1138660Y948746D01*
X1138652Y948740D01*
X1138627Y948731D01*
X1135184Y946851D01*
X1135177Y946844D01*
X1135154Y946831D01*
X1132013Y944480D01*
X1132007Y944472D01*
X1131986Y944457D01*
X1129211Y941682D01*
X1129207Y941674D01*
X1129188Y941655D01*
X1126837Y938514D01*
X1126833Y938505D01*
X1126818Y938484D01*
X1124937Y935041D01*
X1124935Y935031D01*
X1124922Y935008D01*
X1123551Y931332D01*
X1123551Y931323D01*
X1123541Y931298D01*
X1122707Y927464D01*
X1122708Y927454D01*
X1122702Y927429D01*
X1122422Y923515D01*
X1122424Y923506D01*
X1122422Y923480D01*
X1122702Y919566D01*
X1122705Y919557D01*
X1122707Y919531D01*
X1123541Y915697D01*
X1123546Y915688D01*
X1123551Y915663D01*
X1124922Y911986D01*
X1124928Y911979D01*
X1124937Y911954D01*
X1126818Y908510D01*
X1126824Y908504D01*
X1126837Y908480D01*
X1129188Y905339D01*
X1129196Y905334D01*
X1129211Y905313D01*
X1131986Y902538D01*
X1131994Y902533D01*
X1132013Y902515D01*
X1135154Y900163D01*
X1135163Y900160D01*
X1135184Y900144D01*
X1138627Y898264D01*
X1138637Y898262D01*
X1138660Y898249D01*
X1142336Y896878D01*
X1142346Y896877D01*
X1142370Y896868D01*
X1146204Y896034D01*
X1146214Y896034D01*
X1146239Y896029D01*
X1150153Y895749D01*
X1150179Y895754D01*
G37*
G36*
X380025Y895754D02*
X380025Y895754D01*
X380051Y895750D01*
X380092Y895769D01*
X380136Y895778D01*
X380155Y895797D01*
X380179Y895807D01*
X380203Y895845D01*
X380236Y895877D01*
X380241Y895902D01*
X380256Y895924D01*
X380267Y895997D01*
X380267Y905997D01*
X380265Y906004D01*
X380266Y906011D01*
X380245Y906071D01*
X380227Y906132D01*
X380222Y906136D01*
X380220Y906143D01*
X380170Y906182D01*
X380122Y906224D01*
X380115Y906225D01*
X380109Y906229D01*
X380037Y906246D01*
X377319Y906460D01*
X374687Y907092D01*
X372186Y908128D01*
X369878Y909542D01*
X367820Y911300D01*
X366062Y913358D01*
X364648Y915666D01*
X363612Y918167D01*
X362980Y920799D01*
X362767Y923497D01*
X362980Y926196D01*
X363612Y928828D01*
X364648Y931329D01*
X366062Y933637D01*
X367820Y935695D01*
X369878Y937453D01*
X372186Y938867D01*
X374687Y939903D01*
X377319Y940535D01*
X380037Y940749D01*
X380044Y940752D01*
X380051Y940750D01*
X380109Y940776D01*
X380168Y940799D01*
X380172Y940804D01*
X380179Y940807D01*
X380213Y940860D01*
X380251Y940911D01*
X380252Y940918D01*
X380256Y940924D01*
X380267Y940997D01*
X380267Y950997D01*
X380259Y951022D01*
X380261Y951048D01*
X380240Y951088D01*
X380227Y951132D01*
X380208Y951149D01*
X380196Y951172D01*
X380156Y951194D01*
X380122Y951224D01*
X380096Y951227D01*
X380074Y951240D01*
X380000Y951246D01*
X376086Y950966D01*
X376077Y950963D01*
X376051Y950961D01*
X372217Y950127D01*
X372208Y950122D01*
X372183Y950117D01*
X368506Y948746D01*
X368499Y948740D01*
X368474Y948731D01*
X365030Y946851D01*
X365024Y946844D01*
X365000Y946831D01*
X361859Y944480D01*
X361854Y944472D01*
X361833Y944457D01*
X359058Y941682D01*
X359053Y941674D01*
X359035Y941655D01*
X356683Y938514D01*
X356680Y938505D01*
X356664Y938484D01*
X354784Y935041D01*
X354782Y935031D01*
X354769Y935008D01*
X353398Y931332D01*
X353397Y931323D01*
X353388Y931298D01*
X352554Y927464D01*
X352554Y927454D01*
X352549Y927429D01*
X352269Y923515D01*
X352271Y923506D01*
X352269Y923480D01*
X352549Y919566D01*
X352552Y919557D01*
X352554Y919531D01*
X353388Y915697D01*
X353392Y915688D01*
X353398Y915663D01*
X354769Y911986D01*
X354775Y911979D01*
X354784Y911954D01*
X356664Y908510D01*
X356671Y908504D01*
X356683Y908480D01*
X359035Y905339D01*
X359043Y905334D01*
X359058Y905313D01*
X361833Y902538D01*
X361841Y902533D01*
X361859Y902515D01*
X365000Y900163D01*
X365010Y900160D01*
X365030Y900144D01*
X368474Y898264D01*
X368483Y898262D01*
X368506Y898249D01*
X372183Y896878D01*
X372192Y896877D01*
X372217Y896868D01*
X376051Y896034D01*
X376060Y896034D01*
X376086Y896029D01*
X380000Y895749D01*
X380025Y895754D01*
G37*
G36*
X1535243Y412257D02*
X1535243Y412257D01*
X1535268Y412253D01*
X1535310Y412271D01*
X1535354Y412281D01*
X1535372Y412299D01*
X1535396Y412310D01*
X1535421Y412348D01*
X1535453Y412379D01*
X1535459Y412405D01*
X1535473Y412427D01*
X1535484Y412500D01*
X1535484Y422500D01*
X1535482Y422507D01*
X1535484Y422514D01*
X1535463Y422573D01*
X1535445Y422634D01*
X1535439Y422639D01*
X1535437Y422646D01*
X1535387Y422685D01*
X1535340Y422726D01*
X1535332Y422727D01*
X1535327Y422732D01*
X1535254Y422748D01*
X1532536Y422962D01*
X1529904Y423594D01*
X1527403Y424630D01*
X1525096Y426044D01*
X1523037Y427802D01*
X1521279Y429861D01*
X1519865Y432169D01*
X1518829Y434669D01*
X1518197Y437302D01*
X1517985Y440000D01*
X1518197Y442698D01*
X1518829Y445331D01*
X1519865Y447831D01*
X1521279Y450139D01*
X1523037Y452198D01*
X1525096Y453956D01*
X1527403Y455370D01*
X1529904Y456406D01*
X1532536Y457038D01*
X1535254Y457252D01*
X1535261Y457254D01*
X1535268Y457253D01*
X1535326Y457279D01*
X1535385Y457301D01*
X1535389Y457307D01*
X1535396Y457310D01*
X1535431Y457363D01*
X1535469Y457413D01*
X1535469Y457421D01*
X1535473Y457427D01*
X1535484Y457500D01*
X1535484Y467500D01*
X1535477Y467525D01*
X1535479Y467551D01*
X1535458Y467591D01*
X1535445Y467634D01*
X1535425Y467651D01*
X1535413Y467674D01*
X1535374Y467696D01*
X1535340Y467726D01*
X1535314Y467730D01*
X1535291Y467743D01*
X1535217Y467749D01*
X1531303Y467469D01*
X1531294Y467465D01*
X1531268Y467464D01*
X1527434Y466630D01*
X1527426Y466625D01*
X1527400Y466620D01*
X1523724Y465248D01*
X1523716Y465243D01*
X1523691Y465234D01*
X1520248Y463353D01*
X1520241Y463346D01*
X1520218Y463334D01*
X1517077Y460983D01*
X1517071Y460975D01*
X1517050Y460959D01*
X1514275Y458185D01*
X1514271Y458176D01*
X1514252Y458158D01*
X1511901Y455017D01*
X1511897Y455008D01*
X1511882Y454987D01*
X1510001Y451543D01*
X1509999Y451534D01*
X1509986Y451511D01*
X1508615Y447835D01*
X1508615Y447825D01*
X1508605Y447801D01*
X1507771Y443967D01*
X1507772Y443957D01*
X1507766Y443931D01*
X1507486Y440018D01*
X1507488Y440008D01*
X1507486Y439982D01*
X1507766Y436069D01*
X1507769Y436059D01*
X1507771Y436033D01*
X1508605Y432199D01*
X1508610Y432191D01*
X1508615Y432165D01*
X1509986Y428489D01*
X1509992Y428481D01*
X1510001Y428457D01*
X1511882Y425013D01*
X1511888Y425006D01*
X1511901Y424983D01*
X1514252Y421842D01*
X1514260Y421836D01*
X1514275Y421815D01*
X1517050Y419041D01*
X1517058Y419036D01*
X1517077Y419017D01*
X1520218Y416666D01*
X1520227Y416663D01*
X1520248Y416647D01*
X1523691Y414766D01*
X1523701Y414764D01*
X1523724Y414752D01*
X1527400Y413380D01*
X1527410Y413380D01*
X1527434Y413370D01*
X1531268Y412536D01*
X1531278Y412537D01*
X1531303Y412531D01*
X1535217Y412251D01*
X1535243Y412257D01*
G37*
G36*
X1150153Y412257D02*
X1150153Y412257D01*
X1150179Y412253D01*
X1150220Y412271D01*
X1150264Y412281D01*
X1150283Y412299D01*
X1150307Y412310D01*
X1150331Y412348D01*
X1150364Y412379D01*
X1150369Y412405D01*
X1150384Y412427D01*
X1150395Y412500D01*
X1150395Y422500D01*
X1150393Y422507D01*
X1150394Y422514D01*
X1150373Y422573D01*
X1150355Y422634D01*
X1150350Y422639D01*
X1150348Y422646D01*
X1150298Y422685D01*
X1150250Y422726D01*
X1150243Y422727D01*
X1150237Y422732D01*
X1150165Y422748D01*
X1147447Y422962D01*
X1144815Y423594D01*
X1142314Y424630D01*
X1140006Y426044D01*
X1137948Y427802D01*
X1136190Y429861D01*
X1134776Y432169D01*
X1133740Y434669D01*
X1133108Y437302D01*
X1132895Y440000D01*
X1133108Y442698D01*
X1133740Y445331D01*
X1134776Y447831D01*
X1136190Y450139D01*
X1137948Y452198D01*
X1140006Y453956D01*
X1142314Y455370D01*
X1144815Y456406D01*
X1147447Y457038D01*
X1150165Y457252D01*
X1150172Y457254D01*
X1150179Y457253D01*
X1150237Y457279D01*
X1150296Y457301D01*
X1150300Y457307D01*
X1150307Y457310D01*
X1150341Y457363D01*
X1150379Y457413D01*
X1150380Y457421D01*
X1150384Y457427D01*
X1150395Y457500D01*
X1150395Y467500D01*
X1150387Y467525D01*
X1150389Y467551D01*
X1150368Y467591D01*
X1150355Y467634D01*
X1150336Y467651D01*
X1150324Y467674D01*
X1150284Y467696D01*
X1150250Y467726D01*
X1150224Y467730D01*
X1150202Y467743D01*
X1150128Y467749D01*
X1146214Y467469D01*
X1146205Y467465D01*
X1146179Y467464D01*
X1142345Y466630D01*
X1142336Y466625D01*
X1142311Y466620D01*
X1138634Y465248D01*
X1138627Y465243D01*
X1138602Y465234D01*
X1135158Y463353D01*
X1135152Y463346D01*
X1135128Y463334D01*
X1131987Y460983D01*
X1131982Y460975D01*
X1131961Y460959D01*
X1129186Y458185D01*
X1129181Y458176D01*
X1129163Y458158D01*
X1126811Y455017D01*
X1126808Y455008D01*
X1126792Y454987D01*
X1124912Y451543D01*
X1124910Y451534D01*
X1124897Y451511D01*
X1123526Y447835D01*
X1123525Y447825D01*
X1123516Y447801D01*
X1122682Y443967D01*
X1122682Y443957D01*
X1122677Y443931D01*
X1122397Y440018D01*
X1122399Y440008D01*
X1122397Y439982D01*
X1122677Y436069D01*
X1122680Y436059D01*
X1122682Y436033D01*
X1123516Y432199D01*
X1123520Y432191D01*
X1123526Y432165D01*
X1124897Y428489D01*
X1124903Y428481D01*
X1124912Y428457D01*
X1126792Y425013D01*
X1126799Y425006D01*
X1126811Y424983D01*
X1129163Y421842D01*
X1129171Y421836D01*
X1129186Y421815D01*
X1131961Y419041D01*
X1131969Y419036D01*
X1131987Y419017D01*
X1135128Y416666D01*
X1135138Y416663D01*
X1135158Y416647D01*
X1138602Y414766D01*
X1138611Y414764D01*
X1138634Y414752D01*
X1142311Y413380D01*
X1142320Y413380D01*
X1142345Y413370D01*
X1146179Y412536D01*
X1146188Y412537D01*
X1146214Y412531D01*
X1150128Y412251D01*
X1150153Y412257D01*
G37*
G36*
X765089Y412257D02*
X765089Y412257D01*
X765115Y412253D01*
X765156Y412271D01*
X765200Y412281D01*
X765219Y412299D01*
X765243Y412310D01*
X765267Y412348D01*
X765300Y412379D01*
X765305Y412405D01*
X765320Y412427D01*
X765331Y412500D01*
X765331Y422500D01*
X765329Y422507D01*
X765330Y422514D01*
X765309Y422573D01*
X765291Y422634D01*
X765286Y422639D01*
X765284Y422646D01*
X765234Y422685D01*
X765186Y422726D01*
X765179Y422727D01*
X765173Y422732D01*
X765101Y422748D01*
X762383Y422962D01*
X759751Y423594D01*
X757250Y424630D01*
X754942Y426044D01*
X752884Y427802D01*
X751126Y429861D01*
X749712Y432169D01*
X748676Y434669D01*
X748044Y437302D01*
X747831Y440000D01*
X748044Y442698D01*
X748676Y445331D01*
X749712Y447831D01*
X751126Y450139D01*
X752884Y452198D01*
X754942Y453956D01*
X757250Y455370D01*
X759751Y456406D01*
X762383Y457038D01*
X765101Y457252D01*
X765108Y457254D01*
X765115Y457253D01*
X765173Y457279D01*
X765232Y457301D01*
X765236Y457307D01*
X765243Y457310D01*
X765277Y457363D01*
X765315Y457413D01*
X765316Y457421D01*
X765320Y457427D01*
X765331Y457500D01*
X765331Y467500D01*
X765323Y467525D01*
X765325Y467551D01*
X765304Y467591D01*
X765291Y467634D01*
X765272Y467651D01*
X765260Y467674D01*
X765220Y467696D01*
X765186Y467726D01*
X765160Y467730D01*
X765138Y467743D01*
X765064Y467749D01*
X761150Y467469D01*
X761141Y467465D01*
X761115Y467464D01*
X757281Y466630D01*
X757272Y466625D01*
X757247Y466620D01*
X753570Y465248D01*
X753563Y465243D01*
X753538Y465234D01*
X750094Y463353D01*
X750088Y463346D01*
X750064Y463334D01*
X746923Y460983D01*
X746918Y460975D01*
X746897Y460959D01*
X744122Y458185D01*
X744117Y458176D01*
X744099Y458158D01*
X741747Y455017D01*
X741744Y455008D01*
X741728Y454987D01*
X739848Y451543D01*
X739846Y451534D01*
X739833Y451511D01*
X738462Y447835D01*
X738461Y447825D01*
X738452Y447801D01*
X737618Y443967D01*
X737618Y443957D01*
X737613Y443931D01*
X737333Y440018D01*
X737335Y440008D01*
X737333Y439982D01*
X737613Y436069D01*
X737616Y436059D01*
X737618Y436033D01*
X738452Y432199D01*
X738456Y432191D01*
X738462Y432165D01*
X739833Y428489D01*
X739839Y428481D01*
X739848Y428457D01*
X741728Y425013D01*
X741735Y425006D01*
X741747Y424983D01*
X744099Y421842D01*
X744107Y421836D01*
X744122Y421815D01*
X746897Y419041D01*
X746905Y419036D01*
X746923Y419017D01*
X750064Y416666D01*
X750074Y416663D01*
X750094Y416647D01*
X753538Y414766D01*
X753547Y414764D01*
X753570Y414752D01*
X757247Y413380D01*
X757256Y413380D01*
X757281Y413370D01*
X761115Y412536D01*
X761124Y412537D01*
X761150Y412531D01*
X765064Y412251D01*
X765089Y412257D01*
G37*
G36*
X380000Y412257D02*
X380000Y412257D01*
X380025Y412253D01*
X380067Y412271D01*
X380111Y412281D01*
X380129Y412299D01*
X380153Y412310D01*
X380178Y412348D01*
X380210Y412379D01*
X380216Y412405D01*
X380230Y412427D01*
X380241Y412500D01*
X380241Y422500D01*
X380239Y422507D01*
X380241Y422514D01*
X380220Y422573D01*
X380202Y422634D01*
X380197Y422639D01*
X380194Y422646D01*
X380144Y422685D01*
X380097Y422726D01*
X380090Y422727D01*
X380084Y422732D01*
X380012Y422748D01*
X377294Y422962D01*
X374661Y423594D01*
X372161Y424630D01*
X369853Y426044D01*
X367794Y427802D01*
X366036Y429861D01*
X364622Y432169D01*
X363586Y434669D01*
X362954Y437302D01*
X362742Y440000D01*
X362954Y442698D01*
X363586Y445331D01*
X364622Y447831D01*
X366036Y450139D01*
X367794Y452198D01*
X369853Y453956D01*
X372161Y455370D01*
X374661Y456406D01*
X377294Y457038D01*
X380012Y457252D01*
X380018Y457254D01*
X380025Y457253D01*
X380083Y457279D01*
X380142Y457301D01*
X380147Y457307D01*
X380153Y457310D01*
X380188Y457363D01*
X380226Y457413D01*
X380226Y457421D01*
X380230Y457427D01*
X380241Y457500D01*
X380241Y467500D01*
X380234Y467525D01*
X380236Y467551D01*
X380215Y467591D01*
X380202Y467634D01*
X380182Y467651D01*
X380170Y467674D01*
X380131Y467696D01*
X380097Y467726D01*
X380071Y467730D01*
X380048Y467743D01*
X379974Y467749D01*
X376061Y467469D01*
X376051Y467465D01*
X376025Y467464D01*
X372191Y466630D01*
X372183Y466625D01*
X372157Y466620D01*
X368481Y465248D01*
X368473Y465243D01*
X368449Y465234D01*
X365005Y463353D01*
X364998Y463346D01*
X364975Y463334D01*
X361834Y460983D01*
X361828Y460975D01*
X361807Y460959D01*
X359033Y458185D01*
X359028Y458176D01*
X359009Y458158D01*
X356658Y455017D01*
X356655Y455008D01*
X356639Y454987D01*
X354758Y451543D01*
X354756Y451534D01*
X354744Y451511D01*
X353372Y447835D01*
X353372Y447825D01*
X353362Y447801D01*
X352528Y443967D01*
X352529Y443957D01*
X352523Y443931D01*
X352243Y440018D01*
X352245Y440008D01*
X352243Y439982D01*
X352523Y436069D01*
X352527Y436059D01*
X352528Y436033D01*
X353362Y432199D01*
X353367Y432191D01*
X353372Y432165D01*
X354744Y428489D01*
X354749Y428481D01*
X354758Y428457D01*
X356639Y425013D01*
X356646Y425006D01*
X356658Y424983D01*
X359009Y421842D01*
X359017Y421836D01*
X359033Y421815D01*
X361807Y419041D01*
X361816Y419036D01*
X361834Y419017D01*
X364975Y416666D01*
X364984Y416663D01*
X365005Y416647D01*
X368449Y414766D01*
X368458Y414764D01*
X368481Y414752D01*
X372157Y413380D01*
X372167Y413380D01*
X372191Y413370D01*
X376025Y412536D01*
X376035Y412537D01*
X376061Y412531D01*
X379974Y412251D01*
X380000Y412257D01*
G37*
G36*
X1224929Y1284770D02*
X1224929Y1284770D01*
X1224995Y1284772D01*
X1225038Y1284789D01*
X1225085Y1284798D01*
X1225142Y1284831D01*
X1225203Y1284856D01*
X1225238Y1284888D01*
X1225278Y1284912D01*
X1225320Y1284963D01*
X1225368Y1285007D01*
X1225390Y1285050D01*
X1225420Y1285086D01*
X1225441Y1285148D01*
X1225471Y1285207D01*
X1225479Y1285261D01*
X1225491Y1285299D01*
X1225490Y1285338D01*
X1225498Y1285392D01*
X1225498Y1289202D01*
X1225487Y1289267D01*
X1225485Y1289333D01*
X1225467Y1289377D01*
X1225459Y1289423D01*
X1225425Y1289480D01*
X1225401Y1289541D01*
X1225369Y1289576D01*
X1225345Y1289616D01*
X1225294Y1289658D01*
X1225249Y1289706D01*
X1225207Y1289728D01*
X1225170Y1289758D01*
X1225108Y1289779D01*
X1225050Y1289809D01*
X1224995Y1289817D01*
X1224958Y1289830D01*
X1224919Y1289829D01*
X1224864Y1289837D01*
X1211656Y1289837D01*
X1211591Y1289825D01*
X1211526Y1289823D01*
X1211482Y1289805D01*
X1211435Y1289797D01*
X1211379Y1289763D01*
X1211318Y1289739D01*
X1211283Y1289707D01*
X1211242Y1289683D01*
X1211201Y1289632D01*
X1211152Y1289587D01*
X1211131Y1289545D01*
X1211101Y1289509D01*
X1211080Y1289446D01*
X1211050Y1289388D01*
X1211042Y1289333D01*
X1211029Y1289296D01*
X1211029Y1289292D01*
X1211030Y1289256D01*
X1211022Y1289202D01*
X1211022Y1285392D01*
X1211034Y1285328D01*
X1211036Y1285262D01*
X1211053Y1285218D01*
X1211062Y1285172D01*
X1211095Y1285115D01*
X1211120Y1285054D01*
X1211152Y1285019D01*
X1211176Y1284978D01*
X1211227Y1284937D01*
X1211271Y1284888D01*
X1211313Y1284867D01*
X1211350Y1284837D01*
X1211412Y1284816D01*
X1211471Y1284786D01*
X1211525Y1284778D01*
X1211562Y1284765D01*
X1211602Y1284766D01*
X1211656Y1284758D01*
X1224864Y1284758D01*
X1224929Y1284770D01*
G37*
G36*
X839840Y1284770D02*
X839840Y1284770D01*
X839905Y1284772D01*
X839949Y1284789D01*
X839996Y1284798D01*
X840052Y1284831D01*
X840113Y1284856D01*
X840148Y1284888D01*
X840189Y1284912D01*
X840230Y1284963D01*
X840279Y1285007D01*
X840300Y1285050D01*
X840330Y1285086D01*
X840351Y1285148D01*
X840381Y1285207D01*
X840390Y1285261D01*
X840402Y1285299D01*
X840401Y1285338D01*
X840409Y1285392D01*
X840409Y1289202D01*
X840397Y1289267D01*
X840395Y1289333D01*
X840378Y1289377D01*
X840369Y1289423D01*
X840336Y1289480D01*
X840311Y1289541D01*
X840279Y1289576D01*
X840255Y1289616D01*
X840204Y1289658D01*
X840160Y1289706D01*
X840118Y1289728D01*
X840081Y1289758D01*
X840019Y1289779D01*
X839960Y1289809D01*
X839906Y1289817D01*
X839869Y1289830D01*
X839829Y1289829D01*
X839775Y1289837D01*
X826567Y1289837D01*
X826502Y1289825D01*
X826436Y1289823D01*
X826393Y1289805D01*
X826346Y1289797D01*
X826289Y1289763D01*
X826228Y1289739D01*
X826194Y1289707D01*
X826153Y1289683D01*
X826111Y1289632D01*
X826063Y1289587D01*
X826041Y1289545D01*
X826011Y1289509D01*
X825990Y1289446D01*
X825960Y1289388D01*
X825952Y1289333D01*
X825940Y1289296D01*
X825940Y1289292D01*
X825941Y1289256D01*
X825933Y1289202D01*
X825933Y1285392D01*
X825944Y1285328D01*
X825946Y1285262D01*
X825964Y1285218D01*
X825972Y1285172D01*
X826006Y1285115D01*
X826030Y1285054D01*
X826062Y1285019D01*
X826086Y1284978D01*
X826137Y1284937D01*
X826182Y1284888D01*
X826224Y1284867D01*
X826261Y1284837D01*
X826323Y1284816D01*
X826381Y1284786D01*
X826436Y1284778D01*
X826473Y1284765D01*
X826512Y1284766D01*
X826567Y1284758D01*
X839775Y1284758D01*
X839840Y1284770D01*
G37*
G36*
X69686Y1284770D02*
X69686Y1284770D01*
X69752Y1284772D01*
X69796Y1284789D01*
X69842Y1284798D01*
X69899Y1284831D01*
X69960Y1284856D01*
X69995Y1284888D01*
X70035Y1284912D01*
X70077Y1284963D01*
X70125Y1285007D01*
X70147Y1285050D01*
X70177Y1285086D01*
X70198Y1285148D01*
X70228Y1285207D01*
X70236Y1285261D01*
X70249Y1285299D01*
X70248Y1285338D01*
X70256Y1285392D01*
X70256Y1289202D01*
X70244Y1289267D01*
X70242Y1289333D01*
X70224Y1289377D01*
X70216Y1289423D01*
X70182Y1289480D01*
X70158Y1289541D01*
X70126Y1289576D01*
X70102Y1289616D01*
X70051Y1289658D01*
X70006Y1289706D01*
X69964Y1289728D01*
X69928Y1289758D01*
X69865Y1289779D01*
X69807Y1289809D01*
X69752Y1289817D01*
X69715Y1289830D01*
X69676Y1289829D01*
X69621Y1289837D01*
X56413Y1289837D01*
X56349Y1289825D01*
X56283Y1289823D01*
X56239Y1289805D01*
X56193Y1289797D01*
X56136Y1289763D01*
X56075Y1289739D01*
X56040Y1289707D01*
X55999Y1289683D01*
X55958Y1289632D01*
X55909Y1289587D01*
X55888Y1289545D01*
X55858Y1289509D01*
X55837Y1289446D01*
X55807Y1289388D01*
X55799Y1289333D01*
X55786Y1289296D01*
X55786Y1289292D01*
X55787Y1289256D01*
X55779Y1289202D01*
X55779Y1285392D01*
X55791Y1285328D01*
X55793Y1285262D01*
X55810Y1285218D01*
X55819Y1285172D01*
X55852Y1285115D01*
X55877Y1285054D01*
X55909Y1285019D01*
X55933Y1284978D01*
X55984Y1284937D01*
X56028Y1284888D01*
X56071Y1284867D01*
X56107Y1284837D01*
X56169Y1284816D01*
X56228Y1284786D01*
X56282Y1284778D01*
X56320Y1284765D01*
X56359Y1284766D01*
X56413Y1284758D01*
X69621Y1284758D01*
X69686Y1284770D01*
G37*
G36*
X454750Y1284770D02*
X454750Y1284770D01*
X454816Y1284772D01*
X454860Y1284789D01*
X454906Y1284798D01*
X454963Y1284831D01*
X455024Y1284856D01*
X455059Y1284888D01*
X455099Y1284912D01*
X455141Y1284963D01*
X455189Y1285007D01*
X455211Y1285050D01*
X455241Y1285086D01*
X455262Y1285148D01*
X455292Y1285207D01*
X455300Y1285261D01*
X455313Y1285299D01*
X455312Y1285338D01*
X455320Y1285392D01*
X455320Y1289202D01*
X455308Y1289267D01*
X455306Y1289333D01*
X455288Y1289377D01*
X455280Y1289423D01*
X455246Y1289480D01*
X455222Y1289541D01*
X455190Y1289576D01*
X455166Y1289616D01*
X455115Y1289658D01*
X455070Y1289706D01*
X455028Y1289728D01*
X454992Y1289758D01*
X454929Y1289779D01*
X454871Y1289809D01*
X454816Y1289817D01*
X454779Y1289830D01*
X454740Y1289829D01*
X454685Y1289837D01*
X441477Y1289837D01*
X441413Y1289825D01*
X441347Y1289823D01*
X441303Y1289805D01*
X441257Y1289797D01*
X441200Y1289763D01*
X441139Y1289739D01*
X441104Y1289707D01*
X441063Y1289683D01*
X441022Y1289632D01*
X440973Y1289587D01*
X440952Y1289545D01*
X440922Y1289509D01*
X440901Y1289446D01*
X440871Y1289388D01*
X440863Y1289333D01*
X440850Y1289296D01*
X440850Y1289292D01*
X440851Y1289256D01*
X440843Y1289202D01*
X440843Y1285392D01*
X440855Y1285328D01*
X440857Y1285262D01*
X440874Y1285218D01*
X440883Y1285172D01*
X440916Y1285115D01*
X440941Y1285054D01*
X440973Y1285019D01*
X440997Y1284978D01*
X441048Y1284937D01*
X441092Y1284888D01*
X441135Y1284867D01*
X441171Y1284837D01*
X441233Y1284816D01*
X441292Y1284786D01*
X441346Y1284778D01*
X441384Y1284765D01*
X441423Y1284766D01*
X441477Y1284758D01*
X454685Y1284758D01*
X454750Y1284770D01*
G37*
G36*
X1093814Y73672D02*
X1093814Y73672D01*
X1093880Y73674D01*
X1093924Y73692D01*
X1093970Y73700D01*
X1094027Y73734D01*
X1094088Y73759D01*
X1094123Y73790D01*
X1094163Y73815D01*
X1094205Y73866D01*
X1094253Y73910D01*
X1094275Y73952D01*
X1094305Y73989D01*
X1094326Y74051D01*
X1094356Y74110D01*
X1094364Y74164D01*
X1094377Y74201D01*
X1094376Y74241D01*
X1094384Y74295D01*
X1094384Y78105D01*
X1094372Y78170D01*
X1094370Y78236D01*
X1094352Y78279D01*
X1094344Y78326D01*
X1094310Y78383D01*
X1094286Y78443D01*
X1094254Y78478D01*
X1094230Y78519D01*
X1094179Y78561D01*
X1094134Y78609D01*
X1094092Y78631D01*
X1094056Y78660D01*
X1093993Y78681D01*
X1093935Y78712D01*
X1093880Y78720D01*
X1093843Y78732D01*
X1093804Y78731D01*
X1093749Y78739D01*
X1080541Y78739D01*
X1080477Y78728D01*
X1080411Y78726D01*
X1080367Y78708D01*
X1080321Y78700D01*
X1080264Y78666D01*
X1080203Y78641D01*
X1080168Y78610D01*
X1080127Y78585D01*
X1080086Y78534D01*
X1080037Y78490D01*
X1080016Y78448D01*
X1079986Y78411D01*
X1079965Y78349D01*
X1079935Y78290D01*
X1079927Y78236D01*
X1079914Y78199D01*
X1079914Y78195D01*
X1079914Y78194D01*
X1079915Y78159D01*
X1079907Y78105D01*
X1079907Y74295D01*
X1079919Y74230D01*
X1079921Y74164D01*
X1079938Y74121D01*
X1079947Y74074D01*
X1079980Y74017D01*
X1080005Y73957D01*
X1080037Y73922D01*
X1080061Y73881D01*
X1080112Y73840D01*
X1080156Y73791D01*
X1080199Y73769D01*
X1080235Y73740D01*
X1080297Y73719D01*
X1080356Y73688D01*
X1080410Y73680D01*
X1080448Y73668D01*
X1080487Y73669D01*
X1080541Y73661D01*
X1093749Y73661D01*
X1093814Y73672D01*
G37*
G36*
X323661Y73672D02*
X323661Y73672D01*
X323727Y73674D01*
X323770Y73692D01*
X323817Y73700D01*
X323874Y73734D01*
X323934Y73759D01*
X323969Y73790D01*
X324010Y73815D01*
X324052Y73866D01*
X324100Y73910D01*
X324122Y73952D01*
X324151Y73989D01*
X324172Y74051D01*
X324203Y74110D01*
X324211Y74164D01*
X324223Y74201D01*
X324222Y74241D01*
X324230Y74295D01*
X324230Y78105D01*
X324219Y78170D01*
X324217Y78236D01*
X324199Y78279D01*
X324191Y78326D01*
X324157Y78383D01*
X324132Y78443D01*
X324101Y78478D01*
X324076Y78519D01*
X324025Y78561D01*
X323981Y78609D01*
X323939Y78631D01*
X323902Y78660D01*
X323840Y78681D01*
X323781Y78712D01*
X323727Y78720D01*
X323690Y78732D01*
X323650Y78731D01*
X323596Y78739D01*
X310388Y78739D01*
X310323Y78728D01*
X310257Y78726D01*
X310214Y78708D01*
X310167Y78700D01*
X310110Y78666D01*
X310050Y78641D01*
X310015Y78610D01*
X309974Y78585D01*
X309933Y78534D01*
X309884Y78490D01*
X309862Y78448D01*
X309833Y78411D01*
X309812Y78349D01*
X309781Y78290D01*
X309773Y78236D01*
X309761Y78199D01*
X309761Y78195D01*
X309761Y78194D01*
X309762Y78159D01*
X309754Y78105D01*
X309754Y74295D01*
X309765Y74230D01*
X309767Y74164D01*
X309785Y74121D01*
X309793Y74074D01*
X309827Y74017D01*
X309852Y73957D01*
X309883Y73922D01*
X309908Y73881D01*
X309959Y73840D01*
X310003Y73791D01*
X310045Y73769D01*
X310082Y73740D01*
X310144Y73719D01*
X310203Y73688D01*
X310257Y73680D01*
X310294Y73668D01*
X310334Y73669D01*
X310388Y73661D01*
X323596Y73661D01*
X323661Y73672D01*
G37*
G36*
X708750Y73672D02*
X708750Y73672D01*
X708816Y73674D01*
X708860Y73692D01*
X708906Y73700D01*
X708963Y73734D01*
X709024Y73759D01*
X709059Y73790D01*
X709099Y73815D01*
X709141Y73866D01*
X709189Y73910D01*
X709211Y73952D01*
X709241Y73989D01*
X709262Y74051D01*
X709292Y74110D01*
X709300Y74164D01*
X709313Y74201D01*
X709312Y74241D01*
X709320Y74295D01*
X709320Y78105D01*
X709308Y78170D01*
X709306Y78236D01*
X709288Y78279D01*
X709280Y78326D01*
X709246Y78383D01*
X709222Y78443D01*
X709190Y78478D01*
X709166Y78519D01*
X709115Y78561D01*
X709070Y78609D01*
X709028Y78631D01*
X708992Y78660D01*
X708929Y78681D01*
X708871Y78712D01*
X708816Y78720D01*
X708779Y78732D01*
X708740Y78731D01*
X708685Y78739D01*
X695477Y78739D01*
X695413Y78728D01*
X695347Y78726D01*
X695303Y78708D01*
X695257Y78700D01*
X695200Y78666D01*
X695139Y78641D01*
X695104Y78610D01*
X695063Y78585D01*
X695022Y78534D01*
X694973Y78490D01*
X694952Y78448D01*
X694922Y78411D01*
X694901Y78349D01*
X694871Y78290D01*
X694863Y78236D01*
X694850Y78199D01*
X694850Y78195D01*
X694850Y78194D01*
X694851Y78159D01*
X694843Y78105D01*
X694843Y74295D01*
X694855Y74230D01*
X694857Y74164D01*
X694874Y74121D01*
X694883Y74074D01*
X694916Y74017D01*
X694941Y73957D01*
X694973Y73922D01*
X694997Y73881D01*
X695048Y73840D01*
X695092Y73791D01*
X695135Y73769D01*
X695171Y73740D01*
X695233Y73719D01*
X695292Y73688D01*
X695346Y73680D01*
X695384Y73668D01*
X695423Y73669D01*
X695477Y73661D01*
X708685Y73661D01*
X708750Y73672D01*
G37*
G36*
X1478904Y73672D02*
X1478904Y73672D01*
X1478969Y73674D01*
X1479013Y73692D01*
X1479060Y73700D01*
X1479116Y73734D01*
X1479177Y73759D01*
X1479212Y73790D01*
X1479253Y73815D01*
X1479294Y73866D01*
X1479343Y73910D01*
X1479364Y73952D01*
X1479394Y73989D01*
X1479415Y74051D01*
X1479445Y74110D01*
X1479454Y74164D01*
X1479466Y74201D01*
X1479465Y74241D01*
X1479473Y74295D01*
X1479473Y78105D01*
X1479461Y78170D01*
X1479459Y78236D01*
X1479442Y78279D01*
X1479433Y78326D01*
X1479400Y78383D01*
X1479375Y78443D01*
X1479343Y78478D01*
X1479319Y78519D01*
X1479268Y78561D01*
X1479224Y78609D01*
X1479182Y78631D01*
X1479145Y78660D01*
X1479083Y78681D01*
X1479024Y78712D01*
X1478970Y78720D01*
X1478933Y78732D01*
X1478893Y78731D01*
X1478839Y78739D01*
X1465631Y78739D01*
X1465566Y78728D01*
X1465500Y78726D01*
X1465457Y78708D01*
X1465410Y78700D01*
X1465353Y78666D01*
X1465292Y78641D01*
X1465258Y78610D01*
X1465217Y78585D01*
X1465175Y78534D01*
X1465127Y78490D01*
X1465105Y78448D01*
X1465075Y78411D01*
X1465054Y78349D01*
X1465024Y78290D01*
X1465016Y78236D01*
X1465004Y78199D01*
X1465004Y78195D01*
X1465004Y78194D01*
X1465005Y78159D01*
X1464997Y78105D01*
X1464997Y74295D01*
X1465008Y74230D01*
X1465010Y74164D01*
X1465028Y74121D01*
X1465036Y74074D01*
X1465070Y74017D01*
X1465094Y73957D01*
X1465126Y73922D01*
X1465150Y73881D01*
X1465201Y73840D01*
X1465246Y73791D01*
X1465288Y73769D01*
X1465325Y73740D01*
X1465387Y73719D01*
X1465445Y73688D01*
X1465500Y73680D01*
X1465537Y73668D01*
X1465576Y73669D01*
X1465631Y73661D01*
X1478839Y73661D01*
X1478904Y73672D01*
G37*
G36*
X424016Y1284770D02*
X424016Y1284770D01*
X424082Y1284772D01*
X424126Y1284789D01*
X424172Y1284798D01*
X424229Y1284831D01*
X424290Y1284856D01*
X424325Y1284888D01*
X424365Y1284912D01*
X424407Y1284963D01*
X424455Y1285007D01*
X424477Y1285050D01*
X424507Y1285086D01*
X424528Y1285148D01*
X424558Y1285207D01*
X424566Y1285261D01*
X424579Y1285299D01*
X424578Y1285338D01*
X424586Y1285392D01*
X424586Y1289202D01*
X424574Y1289267D01*
X424572Y1289333D01*
X424554Y1289377D01*
X424546Y1289423D01*
X424512Y1289480D01*
X424488Y1289541D01*
X424456Y1289576D01*
X424432Y1289616D01*
X424381Y1289658D01*
X424336Y1289706D01*
X424294Y1289728D01*
X424258Y1289758D01*
X424195Y1289779D01*
X424137Y1289809D01*
X424082Y1289817D01*
X424045Y1289830D01*
X424006Y1289829D01*
X423951Y1289837D01*
X421411Y1289837D01*
X421347Y1289825D01*
X421281Y1289823D01*
X421237Y1289805D01*
X421191Y1289797D01*
X421134Y1289763D01*
X421073Y1289739D01*
X421038Y1289707D01*
X420997Y1289683D01*
X420956Y1289632D01*
X420907Y1289587D01*
X420886Y1289545D01*
X420856Y1289509D01*
X420835Y1289446D01*
X420805Y1289388D01*
X420797Y1289333D01*
X420784Y1289296D01*
X420784Y1289292D01*
X420785Y1289256D01*
X420777Y1289202D01*
X420777Y1285392D01*
X420789Y1285328D01*
X420791Y1285262D01*
X420808Y1285218D01*
X420817Y1285172D01*
X420850Y1285115D01*
X420875Y1285054D01*
X420907Y1285019D01*
X420931Y1284978D01*
X420982Y1284937D01*
X421026Y1284888D01*
X421069Y1284867D01*
X421105Y1284837D01*
X421167Y1284816D01*
X421226Y1284786D01*
X421280Y1284778D01*
X421318Y1284765D01*
X421357Y1284766D01*
X421411Y1284758D01*
X423951Y1284758D01*
X424016Y1284770D01*
G37*
G36*
X1194195Y1284770D02*
X1194195Y1284770D01*
X1194261Y1284772D01*
X1194304Y1284789D01*
X1194351Y1284798D01*
X1194408Y1284831D01*
X1194469Y1284856D01*
X1194504Y1284888D01*
X1194544Y1284912D01*
X1194586Y1284963D01*
X1194634Y1285007D01*
X1194656Y1285050D01*
X1194686Y1285086D01*
X1194707Y1285148D01*
X1194737Y1285207D01*
X1194745Y1285261D01*
X1194757Y1285299D01*
X1194756Y1285338D01*
X1194764Y1285392D01*
X1194764Y1289202D01*
X1194753Y1289267D01*
X1194751Y1289333D01*
X1194733Y1289377D01*
X1194725Y1289423D01*
X1194691Y1289480D01*
X1194667Y1289541D01*
X1194635Y1289576D01*
X1194611Y1289616D01*
X1194560Y1289658D01*
X1194515Y1289706D01*
X1194473Y1289728D01*
X1194436Y1289758D01*
X1194374Y1289779D01*
X1194316Y1289809D01*
X1194261Y1289817D01*
X1194224Y1289830D01*
X1194185Y1289829D01*
X1194130Y1289837D01*
X1191590Y1289837D01*
X1191525Y1289825D01*
X1191460Y1289823D01*
X1191416Y1289805D01*
X1191369Y1289797D01*
X1191313Y1289763D01*
X1191252Y1289739D01*
X1191217Y1289707D01*
X1191176Y1289683D01*
X1191135Y1289632D01*
X1191086Y1289587D01*
X1191065Y1289545D01*
X1191035Y1289509D01*
X1191014Y1289446D01*
X1190984Y1289388D01*
X1190976Y1289333D01*
X1190963Y1289296D01*
X1190963Y1289292D01*
X1190964Y1289256D01*
X1190956Y1289202D01*
X1190956Y1285392D01*
X1190968Y1285328D01*
X1190970Y1285262D01*
X1190987Y1285218D01*
X1190996Y1285172D01*
X1191029Y1285115D01*
X1191054Y1285054D01*
X1191086Y1285019D01*
X1191110Y1284978D01*
X1191161Y1284937D01*
X1191205Y1284888D01*
X1191247Y1284867D01*
X1191284Y1284837D01*
X1191346Y1284816D01*
X1191405Y1284786D01*
X1191459Y1284778D01*
X1191496Y1284765D01*
X1191536Y1284766D01*
X1191590Y1284758D01*
X1194130Y1284758D01*
X1194195Y1284770D01*
G37*
G36*
X38952Y1284770D02*
X38952Y1284770D01*
X39018Y1284772D01*
X39062Y1284789D01*
X39108Y1284798D01*
X39165Y1284831D01*
X39226Y1284856D01*
X39261Y1284888D01*
X39301Y1284912D01*
X39343Y1284963D01*
X39391Y1285007D01*
X39413Y1285050D01*
X39443Y1285086D01*
X39464Y1285148D01*
X39494Y1285207D01*
X39502Y1285261D01*
X39515Y1285299D01*
X39514Y1285338D01*
X39522Y1285392D01*
X39522Y1289202D01*
X39510Y1289267D01*
X39508Y1289333D01*
X39490Y1289377D01*
X39482Y1289423D01*
X39448Y1289480D01*
X39424Y1289541D01*
X39392Y1289576D01*
X39368Y1289616D01*
X39317Y1289658D01*
X39272Y1289706D01*
X39230Y1289728D01*
X39194Y1289758D01*
X39131Y1289779D01*
X39073Y1289809D01*
X39018Y1289817D01*
X38981Y1289830D01*
X38942Y1289829D01*
X38887Y1289837D01*
X36347Y1289837D01*
X36283Y1289825D01*
X36217Y1289823D01*
X36173Y1289805D01*
X36127Y1289797D01*
X36070Y1289763D01*
X36009Y1289739D01*
X35974Y1289707D01*
X35933Y1289683D01*
X35892Y1289632D01*
X35843Y1289587D01*
X35822Y1289545D01*
X35792Y1289509D01*
X35771Y1289446D01*
X35741Y1289388D01*
X35733Y1289333D01*
X35720Y1289296D01*
X35720Y1289292D01*
X35721Y1289256D01*
X35713Y1289202D01*
X35713Y1285392D01*
X35725Y1285328D01*
X35727Y1285262D01*
X35744Y1285218D01*
X35753Y1285172D01*
X35786Y1285115D01*
X35811Y1285054D01*
X35843Y1285019D01*
X35867Y1284978D01*
X35918Y1284937D01*
X35962Y1284888D01*
X36005Y1284867D01*
X36041Y1284837D01*
X36103Y1284816D01*
X36162Y1284786D01*
X36216Y1284778D01*
X36254Y1284765D01*
X36293Y1284766D01*
X36347Y1284758D01*
X38887Y1284758D01*
X38952Y1284770D01*
G37*
G36*
X809106Y1284770D02*
X809106Y1284770D01*
X809171Y1284772D01*
X809215Y1284789D01*
X809262Y1284798D01*
X809318Y1284831D01*
X809379Y1284856D01*
X809414Y1284888D01*
X809455Y1284912D01*
X809496Y1284963D01*
X809545Y1285007D01*
X809566Y1285050D01*
X809596Y1285086D01*
X809617Y1285148D01*
X809647Y1285207D01*
X809656Y1285261D01*
X809668Y1285299D01*
X809667Y1285338D01*
X809675Y1285392D01*
X809675Y1289202D01*
X809663Y1289267D01*
X809661Y1289333D01*
X809644Y1289377D01*
X809635Y1289423D01*
X809602Y1289480D01*
X809577Y1289541D01*
X809545Y1289576D01*
X809521Y1289616D01*
X809470Y1289658D01*
X809426Y1289706D01*
X809384Y1289728D01*
X809347Y1289758D01*
X809285Y1289779D01*
X809226Y1289809D01*
X809172Y1289817D01*
X809135Y1289830D01*
X809095Y1289829D01*
X809041Y1289837D01*
X806501Y1289837D01*
X806436Y1289825D01*
X806370Y1289823D01*
X806327Y1289805D01*
X806280Y1289797D01*
X806223Y1289763D01*
X806162Y1289739D01*
X806128Y1289707D01*
X806087Y1289683D01*
X806045Y1289632D01*
X805997Y1289587D01*
X805975Y1289545D01*
X805945Y1289509D01*
X805924Y1289446D01*
X805894Y1289388D01*
X805886Y1289333D01*
X805874Y1289296D01*
X805874Y1289292D01*
X805875Y1289256D01*
X805867Y1289202D01*
X805867Y1285392D01*
X805878Y1285328D01*
X805880Y1285262D01*
X805898Y1285218D01*
X805906Y1285172D01*
X805940Y1285115D01*
X805964Y1285054D01*
X805996Y1285019D01*
X806020Y1284978D01*
X806071Y1284937D01*
X806116Y1284888D01*
X806158Y1284867D01*
X806195Y1284837D01*
X806257Y1284816D01*
X806315Y1284786D01*
X806370Y1284778D01*
X806407Y1284765D01*
X806446Y1284766D01*
X806501Y1284758D01*
X809041Y1284758D01*
X809106Y1284770D01*
G37*
G36*
X1113880Y73672D02*
X1113880Y73672D01*
X1113946Y73674D01*
X1113990Y73692D01*
X1114036Y73700D01*
X1114093Y73734D01*
X1114154Y73759D01*
X1114189Y73790D01*
X1114229Y73815D01*
X1114271Y73866D01*
X1114319Y73910D01*
X1114341Y73952D01*
X1114371Y73989D01*
X1114392Y74051D01*
X1114422Y74110D01*
X1114430Y74164D01*
X1114443Y74201D01*
X1114442Y74241D01*
X1114450Y74295D01*
X1114450Y78105D01*
X1114438Y78170D01*
X1114436Y78236D01*
X1114418Y78279D01*
X1114410Y78326D01*
X1114376Y78383D01*
X1114352Y78443D01*
X1114320Y78478D01*
X1114296Y78519D01*
X1114245Y78561D01*
X1114200Y78609D01*
X1114158Y78631D01*
X1114122Y78660D01*
X1114059Y78681D01*
X1114001Y78712D01*
X1113946Y78720D01*
X1113909Y78732D01*
X1113870Y78731D01*
X1113815Y78739D01*
X1111275Y78739D01*
X1111211Y78728D01*
X1111145Y78726D01*
X1111101Y78708D01*
X1111055Y78700D01*
X1110998Y78666D01*
X1110937Y78641D01*
X1110902Y78610D01*
X1110861Y78585D01*
X1110820Y78534D01*
X1110771Y78490D01*
X1110750Y78448D01*
X1110720Y78411D01*
X1110699Y78349D01*
X1110669Y78290D01*
X1110661Y78236D01*
X1110648Y78199D01*
X1110648Y78195D01*
X1110648Y78194D01*
X1110649Y78159D01*
X1110641Y78105D01*
X1110641Y74295D01*
X1110653Y74230D01*
X1110655Y74164D01*
X1110672Y74121D01*
X1110681Y74074D01*
X1110714Y74017D01*
X1110739Y73957D01*
X1110771Y73922D01*
X1110795Y73881D01*
X1110846Y73840D01*
X1110890Y73791D01*
X1110933Y73769D01*
X1110969Y73740D01*
X1111031Y73719D01*
X1111090Y73688D01*
X1111144Y73680D01*
X1111182Y73668D01*
X1111221Y73669D01*
X1111275Y73661D01*
X1113815Y73661D01*
X1113880Y73672D01*
G37*
G36*
X1498970Y73672D02*
X1498970Y73672D01*
X1499035Y73674D01*
X1499079Y73692D01*
X1499126Y73700D01*
X1499182Y73734D01*
X1499243Y73759D01*
X1499278Y73790D01*
X1499319Y73815D01*
X1499360Y73866D01*
X1499409Y73910D01*
X1499430Y73952D01*
X1499460Y73989D01*
X1499481Y74051D01*
X1499511Y74110D01*
X1499520Y74164D01*
X1499532Y74201D01*
X1499531Y74241D01*
X1499539Y74295D01*
X1499539Y78105D01*
X1499527Y78170D01*
X1499525Y78236D01*
X1499508Y78279D01*
X1499499Y78326D01*
X1499466Y78383D01*
X1499441Y78443D01*
X1499409Y78478D01*
X1499385Y78519D01*
X1499334Y78561D01*
X1499290Y78609D01*
X1499248Y78631D01*
X1499211Y78660D01*
X1499149Y78681D01*
X1499090Y78712D01*
X1499036Y78720D01*
X1498999Y78732D01*
X1498959Y78731D01*
X1498905Y78739D01*
X1496365Y78739D01*
X1496300Y78728D01*
X1496234Y78726D01*
X1496191Y78708D01*
X1496144Y78700D01*
X1496087Y78666D01*
X1496026Y78641D01*
X1495992Y78610D01*
X1495951Y78585D01*
X1495909Y78534D01*
X1495861Y78490D01*
X1495839Y78448D01*
X1495809Y78411D01*
X1495788Y78349D01*
X1495758Y78290D01*
X1495750Y78236D01*
X1495738Y78199D01*
X1495738Y78195D01*
X1495738Y78194D01*
X1495739Y78159D01*
X1495731Y78105D01*
X1495731Y74295D01*
X1495742Y74230D01*
X1495744Y74164D01*
X1495762Y74121D01*
X1495770Y74074D01*
X1495804Y74017D01*
X1495828Y73957D01*
X1495860Y73922D01*
X1495884Y73881D01*
X1495935Y73840D01*
X1495980Y73791D01*
X1496022Y73769D01*
X1496059Y73740D01*
X1496121Y73719D01*
X1496179Y73688D01*
X1496234Y73680D01*
X1496271Y73668D01*
X1496310Y73669D01*
X1496365Y73661D01*
X1498905Y73661D01*
X1498970Y73672D01*
G37*
G36*
X728816Y73672D02*
X728816Y73672D01*
X728882Y73674D01*
X728926Y73692D01*
X728972Y73700D01*
X729029Y73734D01*
X729090Y73759D01*
X729125Y73790D01*
X729165Y73815D01*
X729207Y73866D01*
X729255Y73910D01*
X729277Y73952D01*
X729307Y73989D01*
X729328Y74051D01*
X729358Y74110D01*
X729366Y74164D01*
X729379Y74201D01*
X729378Y74241D01*
X729386Y74295D01*
X729386Y78105D01*
X729374Y78170D01*
X729372Y78236D01*
X729354Y78279D01*
X729346Y78326D01*
X729312Y78383D01*
X729288Y78443D01*
X729256Y78478D01*
X729232Y78519D01*
X729181Y78561D01*
X729136Y78609D01*
X729094Y78631D01*
X729058Y78660D01*
X728995Y78681D01*
X728937Y78712D01*
X728882Y78720D01*
X728845Y78732D01*
X728806Y78731D01*
X728751Y78739D01*
X726211Y78739D01*
X726147Y78728D01*
X726081Y78726D01*
X726037Y78708D01*
X725991Y78700D01*
X725934Y78666D01*
X725873Y78641D01*
X725838Y78610D01*
X725797Y78585D01*
X725756Y78534D01*
X725707Y78490D01*
X725686Y78448D01*
X725656Y78411D01*
X725635Y78349D01*
X725605Y78290D01*
X725597Y78236D01*
X725584Y78199D01*
X725584Y78195D01*
X725584Y78194D01*
X725585Y78159D01*
X725577Y78105D01*
X725577Y74295D01*
X725589Y74230D01*
X725591Y74164D01*
X725608Y74121D01*
X725617Y74074D01*
X725650Y74017D01*
X725675Y73957D01*
X725707Y73922D01*
X725731Y73881D01*
X725782Y73840D01*
X725826Y73791D01*
X725869Y73769D01*
X725905Y73740D01*
X725967Y73719D01*
X726026Y73688D01*
X726080Y73680D01*
X726118Y73668D01*
X726157Y73669D01*
X726211Y73661D01*
X728751Y73661D01*
X728816Y73672D01*
G37*
G36*
X343727Y73672D02*
X343727Y73672D01*
X343793Y73674D01*
X343836Y73692D01*
X343883Y73700D01*
X343940Y73734D01*
X344000Y73759D01*
X344035Y73790D01*
X344076Y73815D01*
X344118Y73866D01*
X344166Y73910D01*
X344188Y73952D01*
X344217Y73989D01*
X344238Y74051D01*
X344269Y74110D01*
X344277Y74164D01*
X344289Y74201D01*
X344288Y74241D01*
X344296Y74295D01*
X344296Y78105D01*
X344285Y78170D01*
X344283Y78236D01*
X344265Y78279D01*
X344257Y78326D01*
X344223Y78383D01*
X344198Y78443D01*
X344167Y78478D01*
X344142Y78519D01*
X344091Y78561D01*
X344047Y78609D01*
X344005Y78631D01*
X343968Y78660D01*
X343906Y78681D01*
X343847Y78712D01*
X343793Y78720D01*
X343756Y78732D01*
X343716Y78731D01*
X343662Y78739D01*
X341122Y78739D01*
X341057Y78728D01*
X340991Y78726D01*
X340948Y78708D01*
X340901Y78700D01*
X340844Y78666D01*
X340784Y78641D01*
X340749Y78610D01*
X340708Y78585D01*
X340667Y78534D01*
X340618Y78490D01*
X340596Y78448D01*
X340567Y78411D01*
X340546Y78349D01*
X340515Y78290D01*
X340507Y78236D01*
X340495Y78199D01*
X340495Y78195D01*
X340495Y78194D01*
X340496Y78159D01*
X340488Y78105D01*
X340488Y74295D01*
X340499Y74230D01*
X340501Y74164D01*
X340519Y74121D01*
X340527Y74074D01*
X340561Y74017D01*
X340586Y73957D01*
X340617Y73922D01*
X340642Y73881D01*
X340693Y73840D01*
X340737Y73791D01*
X340779Y73769D01*
X340816Y73740D01*
X340878Y73719D01*
X340937Y73688D01*
X340991Y73680D01*
X341028Y73668D01*
X341068Y73669D01*
X341122Y73661D01*
X343662Y73661D01*
X343727Y73672D01*
G37*
D10*
X369992Y50000D03*
X9992Y640000D03*
D11*
X316992Y71120D03*
X316992Y81280D03*
D12*
X316992Y63500D03*
X316992Y88900D03*
D13*
X342392Y70993D03*
X342392Y81407D03*
D14*
X342392Y571500D03*
D15*
X279992Y15250D03*
X274992Y15250D03*
X269992Y15250D03*
X264992Y15250D03*
X259992Y15250D03*
X254992Y15250D03*
X249992Y15250D03*
X244992Y15250D03*
X239992Y15250D03*
X234992Y15250D03*
X229992Y15250D03*
X204992Y15250D03*
X199992Y15250D03*
X194992Y15250D03*
X189992Y15250D03*
X184992Y15250D03*
X179992Y15250D03*
X174992Y15250D03*
X169992Y15250D03*
X164992Y15250D03*
X159992Y15250D03*
X154992Y15250D03*
X149992Y15250D03*
X144992Y15250D03*
X139992Y15250D03*
X134992Y15250D03*
X129992Y15250D03*
X124992Y15250D03*
X119992Y15250D03*
X114992Y15250D03*
X109992Y15250D03*
X104992Y15250D03*
X99992Y15250D03*
D16*
X369992Y461000D03*
X369992Y419000D03*
X356992Y440000D03*
X9992Y419000D03*
X9992Y461000D03*
X22992Y440000D03*
D11*
X253492Y105664D03*
X253492Y97536D03*
D10*
X755081Y50000D03*
X395081Y640000D03*
D11*
X702081Y71120D03*
X702081Y81280D03*
D12*
X702081Y63500D03*
X702081Y88900D03*
D13*
X727481Y70993D03*
X727481Y81407D03*
D14*
X727481Y571500D03*
D15*
X665081Y15250D03*
X660081Y15250D03*
X655081Y15250D03*
X650081Y15250D03*
X645081Y15250D03*
X640081Y15250D03*
X635081Y15250D03*
X630081Y15250D03*
X625081Y15250D03*
X620081Y15250D03*
X615081Y15250D03*
X590081Y15250D03*
X585081Y15250D03*
X580081Y15250D03*
X575081Y15250D03*
X570081Y15250D03*
X565081Y15250D03*
X560081Y15250D03*
X555081Y15250D03*
X550081Y15250D03*
X545081Y15250D03*
X540081Y15250D03*
X535081Y15250D03*
X530081Y15250D03*
X525081Y15250D03*
X520081Y15250D03*
X515081Y15250D03*
X510081Y15250D03*
X505081Y15250D03*
X500081Y15250D03*
X495081Y15250D03*
X490081Y15250D03*
X485081Y15250D03*
D16*
X755081Y461000D03*
X755081Y419000D03*
X742081Y440000D03*
X395081Y419000D03*
X395081Y461000D03*
X408081Y440000D03*
D11*
X638581Y105664D03*
X638581Y97536D03*
D10*
X1140145Y50000D03*
X780145Y640000D03*
D11*
X1087145Y71120D03*
X1087145Y81280D03*
D12*
X1087145Y63500D03*
X1087145Y88900D03*
D13*
X1112545Y70993D03*
X1112545Y81407D03*
D14*
X1112545Y571500D03*
D15*
X1050145Y15250D03*
X1045145Y15250D03*
X1040145Y15250D03*
X1035145Y15250D03*
X1030145Y15250D03*
X1025145Y15250D03*
X1020145Y15250D03*
X1015145Y15250D03*
X1010145Y15250D03*
X1005145Y15250D03*
X1000145Y15250D03*
X975145Y15250D03*
X970145Y15250D03*
X965145Y15250D03*
X960145Y15250D03*
X955145Y15250D03*
X950145Y15250D03*
X945145Y15250D03*
X940145Y15250D03*
X935145Y15250D03*
X930145Y15250D03*
X925145Y15250D03*
X920145Y15250D03*
X915145Y15250D03*
X910145Y15250D03*
X905145Y15250D03*
X900145Y15250D03*
X895145Y15250D03*
X890145Y15250D03*
X885145Y15250D03*
X880145Y15250D03*
X875145Y15250D03*
X870145Y15250D03*
D16*
X1140145Y461000D03*
X1140145Y419000D03*
X1127145Y440000D03*
X780145Y419000D03*
X780145Y461000D03*
X793145Y440000D03*
D11*
X1023645Y105664D03*
X1023645Y97536D03*
D10*
X1525235Y50000D03*
X1165235Y640000D03*
D11*
X1472235Y71120D03*
X1472235Y81280D03*
D12*
X1472235Y63500D03*
X1472235Y88900D03*
D13*
X1497635Y70993D03*
X1497635Y81407D03*
D14*
X1497635Y571500D03*
D15*
X1435235Y15250D03*
X1430235Y15250D03*
X1425235Y15250D03*
X1420235Y15250D03*
X1415235Y15250D03*
X1410235Y15250D03*
X1405235Y15250D03*
X1400235Y15250D03*
X1395235Y15250D03*
X1390235Y15250D03*
X1385235Y15250D03*
X1360235Y15250D03*
X1355235Y15250D03*
X1350235Y15250D03*
X1345235Y15250D03*
X1340235Y15250D03*
X1335235Y15250D03*
X1330235Y15250D03*
X1325235Y15250D03*
X1320235Y15250D03*
X1315235Y15250D03*
X1310235Y15250D03*
X1305235Y15250D03*
X1300235Y15250D03*
X1295235Y15250D03*
X1290235Y15250D03*
X1285235Y15250D03*
X1280235Y15250D03*
X1275235Y15250D03*
X1270235Y15250D03*
X1265235Y15250D03*
X1260235Y15250D03*
X1255235Y15250D03*
D16*
X1525235Y461000D03*
X1525235Y419000D03*
X1512235Y440000D03*
X1165235Y419000D03*
X1165235Y461000D03*
X1178235Y440000D03*
D11*
X1408735Y105664D03*
X1408735Y97536D03*
D10*
X10017Y1313497D03*
X370017Y723497D03*
D11*
X63017Y1292377D03*
X63017Y1282217D03*
D12*
X63017Y1299997D03*
X63017Y1274597D03*
D13*
X37617Y1292504D03*
X37617Y1282090D03*
D14*
X37617Y791997D03*
D15*
X100017Y1348247D03*
X105017Y1348247D03*
X110017Y1348247D03*
X115017Y1348247D03*
X120017Y1348247D03*
X125017Y1348247D03*
X130017Y1348247D03*
X135017Y1348247D03*
X140017Y1348247D03*
X145017Y1348247D03*
X150017Y1348247D03*
X175017Y1348247D03*
X180017Y1348247D03*
X185017Y1348247D03*
X190017Y1348247D03*
X195017Y1348247D03*
X200017Y1348247D03*
X205017Y1348247D03*
X210017Y1348247D03*
X215017Y1348247D03*
X220017Y1348247D03*
X225017Y1348247D03*
X230017Y1348247D03*
X235017Y1348247D03*
X240017Y1348247D03*
X245017Y1348247D03*
X250017Y1348247D03*
X255017Y1348247D03*
X260017Y1348247D03*
X265017Y1348247D03*
X270017Y1348247D03*
X275017Y1348247D03*
X280017Y1348247D03*
D16*
X10017Y902497D03*
X10017Y944497D03*
X23017Y923497D03*
X370017Y944497D03*
X370017Y902497D03*
X357017Y923497D03*
D11*
X126517Y1257833D03*
X126517Y1265961D03*
D10*
X395081Y1313497D03*
X755081Y723497D03*
D11*
X448081Y1292377D03*
X448081Y1282217D03*
D12*
X448081Y1299997D03*
X448081Y1274597D03*
D13*
X422681Y1292504D03*
X422681Y1282090D03*
D14*
X422681Y791997D03*
D15*
X485081Y1348247D03*
X490081Y1348247D03*
X495081Y1348247D03*
X500081Y1348247D03*
X505081Y1348247D03*
X510081Y1348247D03*
X515081Y1348247D03*
X520081Y1348247D03*
X525081Y1348247D03*
X530081Y1348247D03*
X535081Y1348247D03*
X560081Y1348247D03*
X565081Y1348247D03*
X570081Y1348247D03*
X575081Y1348247D03*
X580081Y1348247D03*
X585081Y1348247D03*
X590081Y1348247D03*
X595081Y1348247D03*
X600081Y1348247D03*
X605081Y1348247D03*
X610081Y1348247D03*
X615081Y1348247D03*
X620081Y1348247D03*
X625081Y1348247D03*
X630081Y1348247D03*
X635081Y1348247D03*
X640081Y1348247D03*
X645081Y1348247D03*
X650081Y1348247D03*
X655081Y1348247D03*
X660081Y1348247D03*
X665081Y1348247D03*
D16*
X395081Y902497D03*
X395081Y944497D03*
X408081Y923497D03*
X755081Y944497D03*
X755081Y902497D03*
X742081Y923497D03*
D11*
X511581Y1257833D03*
X511581Y1265961D03*
D10*
X780171Y1313497D03*
X1140171Y723497D03*
D11*
X833171Y1292377D03*
X833171Y1282217D03*
D12*
X833171Y1299997D03*
X833171Y1274597D03*
D13*
X807771Y1292504D03*
X807771Y1282090D03*
D14*
X807771Y791997D03*
D15*
X870171Y1348247D03*
X875171Y1348247D03*
X880171Y1348247D03*
X885171Y1348247D03*
X890171Y1348247D03*
X895171Y1348247D03*
X900171Y1348247D03*
X905171Y1348247D03*
X910171Y1348247D03*
X915171Y1348247D03*
X920171Y1348247D03*
X945171Y1348247D03*
X950171Y1348247D03*
X955171Y1348247D03*
X960171Y1348247D03*
X965171Y1348247D03*
X970171Y1348247D03*
X975171Y1348247D03*
X980171Y1348247D03*
X985171Y1348247D03*
X990171Y1348247D03*
X995171Y1348247D03*
X1000171Y1348247D03*
X1005171Y1348247D03*
X1010171Y1348247D03*
X1015171Y1348247D03*
X1020171Y1348247D03*
X1025171Y1348247D03*
X1030171Y1348247D03*
X1035171Y1348247D03*
X1040171Y1348247D03*
X1045171Y1348247D03*
X1050171Y1348247D03*
D16*
X780171Y902497D03*
X780171Y944497D03*
X793171Y923497D03*
X1140171Y944497D03*
X1140171Y902497D03*
X1127171Y923497D03*
D11*
X896671Y1257833D03*
X896671Y1265961D03*
D10*
X1165260Y1313497D03*
X1525260Y723497D03*
D11*
X1218260Y1292377D03*
X1218260Y1282217D03*
D12*
X1218260Y1299997D03*
X1218260Y1274597D03*
D13*
X1192860Y1292504D03*
X1192860Y1282090D03*
D14*
X1192860Y791997D03*
D15*
X1255260Y1348247D03*
X1260260Y1348247D03*
X1265260Y1348247D03*
X1270260Y1348247D03*
X1275260Y1348247D03*
X1280260Y1348247D03*
X1285260Y1348247D03*
X1290260Y1348247D03*
X1295260Y1348247D03*
X1300260Y1348247D03*
X1305260Y1348247D03*
X1330260Y1348247D03*
X1335260Y1348247D03*
X1340260Y1348247D03*
X1345260Y1348247D03*
X1350260Y1348247D03*
X1355260Y1348247D03*
X1360260Y1348247D03*
X1365260Y1348247D03*
X1370260Y1348247D03*
X1375260Y1348247D03*
X1380260Y1348247D03*
X1385260Y1348247D03*
X1390260Y1348247D03*
X1395260Y1348247D03*
X1400260Y1348247D03*
X1405260Y1348247D03*
X1410260Y1348247D03*
X1415260Y1348247D03*
X1420260Y1348247D03*
X1425260Y1348247D03*
X1430260Y1348247D03*
X1435260Y1348247D03*
D16*
X1165260Y902497D03*
X1165260Y944497D03*
X1178260Y923497D03*
X1525260Y944497D03*
X1525260Y902497D03*
X1512260Y923497D03*
D11*
X1281760Y1257833D03*
X1281760Y1265961D03*
D17*
X-26238Y1299997D03*
X1561490Y1299997D03*
D18*
X-35293Y63500D02*
X-35290Y63722D01*
X-35282Y63944D01*
X-35268Y64166D01*
X-35249Y64388D01*
X-35225Y64608D01*
X-35195Y64829D01*
X-35160Y65048D01*
X-35119Y65267D01*
X-35073Y65484D01*
X-35022Y65700D01*
X-34965Y65915D01*
X-34903Y66129D01*
X-34836Y66340D01*
X-34764Y66551D01*
X-34686Y66759D01*
X-34604Y66965D01*
X-34516Y67169D01*
X-34424Y67372D01*
X-34326Y67571D01*
X-34224Y67768D01*
X-34117Y67963D01*
X-34005Y68155D01*
X-33888Y68344D01*
X-33767Y68531D01*
X-33641Y68714D01*
X-33511Y68894D01*
X-33376Y69071D01*
X-33238Y69244D01*
X-33095Y69414D01*
X-32947Y69581D01*
X-32796Y69744D01*
X-32641Y69903D01*
X-32482Y70058D01*
X-32319Y70209D01*
X-32152Y70357D01*
X-31982Y70500D01*
X-31809Y70638D01*
X-31632Y70773D01*
X-31452Y70903D01*
X-31269Y71029D01*
X-31082Y71150D01*
X-30893Y71267D01*
X-30701Y71379D01*
X-30506Y71486D01*
X-30309Y71588D01*
X-30110Y71686D01*
X-29907Y71778D01*
X-29703Y71866D01*
X-29497Y71948D01*
X-29289Y72026D01*
X-29078Y72098D01*
X-28867Y72165D01*
X-28653Y72227D01*
X-28438Y72284D01*
X-28222Y72335D01*
X-28005Y72381D01*
X-27786Y72422D01*
X-27567Y72457D01*
X-27346Y72487D01*
X-27126Y72511D01*
X-26904Y72530D01*
X-26682Y72544D01*
X-26460Y72552D01*
X-26238Y72555D01*
X-26016Y72552D01*
X-25794Y72544D01*
X-25572Y72530D01*
X-25350Y72511D01*
X-25130Y72487D01*
X-24909Y72457D01*
X-24690Y72422D01*
X-24471Y72381D01*
X-24254Y72335D01*
X-24038Y72284D01*
X-23823Y72227D01*
X-23609Y72165D01*
X-23398Y72098D01*
X-23187Y72026D01*
X-22979Y71948D01*
X-22773Y71866D01*
X-22569Y71778D01*
X-22366Y71686D01*
X-22167Y71588D01*
X-21970Y71486D01*
X-21775Y71379D01*
X-21583Y71267D01*
X-21394Y71150D01*
X-21207Y71029D01*
X-21024Y70903D01*
X-20844Y70773D01*
X-20667Y70638D01*
X-20494Y70500D01*
X-20324Y70357D01*
X-20157Y70209D01*
X-19994Y70058D01*
X-19835Y69903D01*
X-19680Y69744D01*
X-19529Y69581D01*
X-19381Y69414D01*
X-19238Y69244D01*
X-19100Y69071D01*
X-18965Y68894D01*
X-18835Y68714D01*
X-18709Y68531D01*
X-18588Y68344D01*
X-18471Y68155D01*
X-18359Y67963D01*
X-18252Y67768D01*
X-18150Y67571D01*
X-18052Y67372D01*
X-17960Y67169D01*
X-17872Y66965D01*
X-17790Y66759D01*
X-17712Y66551D01*
X-17640Y66340D01*
X-17573Y66129D01*
X-17511Y65915D01*
X-17454Y65700D01*
X-17403Y65484D01*
X-17357Y65267D01*
X-17316Y65048D01*
X-17281Y64829D01*
X-17251Y64608D01*
X-17227Y64388D01*
X-17208Y64166D01*
X-17194Y63944D01*
X-17186Y63722D01*
X-17183Y63500D01*
X-17186Y63278D01*
X-17194Y63056D01*
X-17208Y62834D01*
X-17227Y62612D01*
X-17251Y62392D01*
X-17281Y62171D01*
X-17316Y61952D01*
X-17357Y61733D01*
X-17403Y61516D01*
X-17454Y61300D01*
X-17511Y61085D01*
X-17573Y60871D01*
X-17640Y60660D01*
X-17712Y60449D01*
X-17790Y60241D01*
X-17872Y60035D01*
X-17960Y59831D01*
X-18052Y59628D01*
X-18150Y59429D01*
X-18252Y59232D01*
X-18359Y59037D01*
X-18471Y58845D01*
X-18588Y58656D01*
X-18709Y58469D01*
X-18835Y58286D01*
X-18965Y58106D01*
X-19100Y57929D01*
X-19238Y57756D01*
X-19381Y57586D01*
X-19529Y57419D01*
X-19680Y57256D01*
X-19835Y57097D01*
X-19994Y56942D01*
X-20157Y56791D01*
X-20324Y56643D01*
X-20494Y56500D01*
X-20667Y56362D01*
X-20844Y56227D01*
X-21024Y56097D01*
X-21207Y55971D01*
X-21394Y55850D01*
X-21583Y55733D01*
X-21775Y55621D01*
X-21970Y55514D01*
X-22167Y55412D01*
X-22366Y55314D01*
X-22569Y55222D01*
X-22773Y55134D01*
X-22979Y55052D01*
X-23187Y54974D01*
X-23398Y54902D01*
X-23609Y54835D01*
X-23823Y54773D01*
X-24038Y54716D01*
X-24254Y54665D01*
X-24471Y54619D01*
X-24690Y54578D01*
X-24909Y54543D01*
X-25130Y54513D01*
X-25350Y54489D01*
X-25572Y54470D01*
X-25794Y54456D01*
X-26016Y54448D01*
X-26238Y54445D01*
X-26460Y54448D01*
X-26682Y54456D01*
X-26904Y54470D01*
X-27126Y54489D01*
X-27346Y54513D01*
X-27567Y54543D01*
X-27786Y54578D01*
X-28005Y54619D01*
X-28222Y54665D01*
X-28438Y54716D01*
X-28653Y54773D01*
X-28867Y54835D01*
X-29078Y54902D01*
X-29289Y54974D01*
X-29497Y55052D01*
X-29703Y55134D01*
X-29907Y55222D01*
X-30110Y55314D01*
X-30309Y55412D01*
X-30506Y55514D01*
X-30701Y55621D01*
X-30893Y55733D01*
X-31082Y55850D01*
X-31269Y55971D01*
X-31452Y56097D01*
X-31632Y56227D01*
X-31809Y56362D01*
X-31982Y56500D01*
X-32152Y56643D01*
X-32319Y56791D01*
X-32482Y56942D01*
X-32641Y57097D01*
X-32796Y57256D01*
X-32947Y57419D01*
X-33095Y57586D01*
X-33238Y57756D01*
X-33376Y57929D01*
X-33511Y58106D01*
X-33641Y58286D01*
X-33767Y58469D01*
X-33888Y58656D01*
X-34005Y58845D01*
X-34117Y59037D01*
X-34224Y59232D01*
X-34326Y59429D01*
X-34424Y59628D01*
X-34516Y59831D01*
X-34604Y60035D01*
X-34686Y60241D01*
X-34764Y60449D01*
X-34836Y60660D01*
X-34903Y60871D01*
X-34965Y61085D01*
X-35022Y61300D01*
X-35073Y61516D01*
X-35119Y61733D01*
X-35160Y61952D01*
X-35195Y62171D01*
X-35225Y62392D01*
X-35249Y62612D01*
X-35268Y62834D01*
X-35282Y63056D01*
X-35290Y63278D01*
X-35293Y63500D01*
D19*
X-26238Y63500D03*
M02*
