M48
;GenerationSoftware,Autodesk,EAGLE,9.6.2*%
;CreationDate,2021-11-01T22:23:01Z*%
FMAT,2
ICI,OFF
METRIC,TZ,000.000
T3C0.305
T2C1.016
T1C3.302
%
G90
M71
T1
X34239Y57150
X72748Y57150
X111255Y57150
X149763Y57150
X3762Y81740
X42268Y81740
X80777Y81740
X119286Y81740
T2
X31699Y6350
X31699Y8890
X70208Y6350
X70208Y8890
X108715Y6350
X108715Y8890
X147223Y6350
X147223Y8890
X6302Y132540
X6302Y130000
X44808Y132540
X44808Y130000
X83317Y132540
X83317Y130000
X121826Y132540
X121826Y130000
T3
X37052Y18469
X36960Y25995
X36144Y10414
X21793Y59055
X21793Y60325
X21793Y61595
X21793Y62865
X21793Y64135
X30175Y64135
X30175Y62865
X30175Y61595
X30175Y60325
X30175Y59055
X28524Y4588
X23190Y5731
X18872Y3699
X17348Y3699
X7442Y4969
X27381Y55896
X27381Y57166
X24714Y57166
X24714Y56023
X30175Y57166
X25984Y51959
X6299Y12589
X35890Y29337
X6299Y13589
X19634Y11049
X24341Y11594
X32991Y28160
X27051Y12827
X32994Y25560
X26213Y12827
X32969Y7366
X14652Y12065
X6045Y14859
X32999Y33200
X15888Y13102
X32999Y35740
X15189Y13589
X32999Y30660
X16346Y12213
X16629Y10922
X3800Y13503
X14152Y10287
X2489Y12700
X13634Y9620
X1219Y12192
X1346Y8128
X2489Y7341
X12649Y9271
X6426Y9252
X11125Y9017
X11379Y11049
X7442Y11049
X19507Y5080
X21184Y5074
X20345Y5080
X25349Y8128
X18618Y7112
X19634Y9144
X71600Y23060
X66398Y12446
X45316Y16272
X47602Y18050
X43411Y17923
X43284Y38243
X45316Y39894
X47475Y38243
X50396Y51832
X48872Y53991
X50523Y56150
X53063Y56277
X54714Y54118
X53063Y51832
X60302Y57150
X60302Y53991
X61953Y51959
X66525Y53864
X71732Y38243
X69700Y39894
X67541Y38243
X67287Y17923
X69319Y16399
X75634Y12970
X75561Y18469
X75469Y25995
X74653Y10414
X60302Y59055
X60302Y60325
X60302Y61595
X60302Y62865
X60302Y64135
X68684Y64135
X68684Y62865
X68684Y61595
X68684Y60325
X68684Y59055
X67033Y4588
X61699Y5731
X57381Y3699
X55857Y3699
X45951Y4969
X65890Y55896
X65890Y57166
X63223Y57166
X63223Y56023
X68684Y57166
X64493Y51959
X44808Y12589
X74399Y29337
X44808Y13589
X58143Y11049
X62850Y11594
X71500Y28160
X65560Y12827
X71503Y25560
X64722Y12827
X71478Y7366
X53161Y12065
X44554Y14859
X71508Y33200
X54397Y13102
X71508Y35740
X53698Y13589
X71508Y30660
X54855Y12213
X55138Y10922
X42309Y13503
X52661Y10287
X40998Y12700
X52142Y9620
X39728Y12192
X39855Y8128
X40998Y7341
X51158Y9271
X44935Y9252
X49634Y9017
X49888Y11049
X45951Y11049
X58016Y5080
X59693Y5074
X58854Y5080
X63858Y8128
X57127Y7112
X58143Y9144
X110107Y23060
X104905Y12446
X83823Y16272
X86109Y18050
X81918Y17923
X81791Y38243
X83823Y39894
X85982Y38243
X88903Y51832
X87379Y53991
X89030Y56150
X91570Y56277
X93221Y54118
X91570Y51832
X98809Y57150
X98809Y53991
X100460Y51959
X105032Y53864
X110239Y38243
X108207Y39894
X106048Y38243
X105794Y17923
X107826Y16399
X114141Y12970
X114068Y18469
X113976Y25995
X113160Y10414
X98809Y59055
X98809Y60325
X98809Y61595
X98809Y62865
X98809Y64135
X107191Y64135
X107191Y62865
X107191Y61595
X107191Y60325
X107191Y59055
X105540Y4588
X100206Y5731
X95888Y3699
X94364Y3699
X84458Y4969
X104397Y55896
X104397Y57166
X101730Y57166
X101730Y56023
X107191Y57166
X103000Y51959
X83315Y12589
X112906Y29337
X83315Y13589
X96650Y11049
X101357Y11594
X110007Y28160
X104066Y12827
X110010Y25560
X103228Y12827
X109985Y7366
X91668Y12065
X83061Y14859
X110015Y33200
X92903Y13102
X110015Y35740
X92205Y13589
X110015Y30660
X93361Y12213
X93644Y10922
X80816Y13503
X91168Y10287
X79505Y12700
X90649Y9620
X78235Y12192
X78362Y8128
X79505Y7341
X89665Y9271
X83442Y9252
X88141Y9017
X88395Y11049
X84458Y11049
X96523Y5080
X98199Y5074
X97361Y5080
X102365Y8128
X95634Y7112
X96650Y9144
X148615Y23060
X143413Y12446
X122331Y16272
X124617Y18050
X120426Y17923
X120299Y38243
X122331Y39894
X124490Y38243
X127411Y51832
X125887Y53991
X127538Y56150
X130078Y56277
X131729Y54118
X130078Y51832
X137317Y57150
X137317Y53991
X138968Y51959
X143540Y53864
X148747Y38243
X146715Y39894
X144556Y38243
X144302Y17923
X146334Y16399
X152649Y12970
X152576Y18469
X152484Y25995
X151668Y10414
X137317Y59055
X137317Y60325
X137317Y61595
X137317Y62865
X137317Y64135
X145699Y64135
X145699Y62865
X145699Y61595
X145699Y60325
X145699Y59055
X144048Y4588
X138714Y5731
X134396Y3699
X132872Y3699
X122966Y4969
X142905Y55896
X142905Y57166
X140238Y57166
X140238Y56023
X145699Y57166
X141508Y51959
X121823Y12589
X151414Y29337
X121823Y13589
X135158Y11049
X139865Y11594
X148515Y28160
X142575Y12827
X148519Y25560
X141737Y12827
X148493Y7366
X130177Y12065
X121569Y14859
X148523Y33200
X131412Y13102
X148523Y35740
X130713Y13589
X148523Y30660
X131870Y12213
X132153Y10922
X119325Y13503
X129677Y10287
X118013Y12700
X129158Y9620
X116743Y12192
X116870Y8128
X118013Y7341
X128173Y9271
X121950Y9252
X126649Y9017
X126903Y11049
X122966Y11049
X135031Y5080
X136708Y5074
X135870Y5080
X140873Y8128
X134142Y7112
X135158Y9144
X4910Y115830
X10112Y126444
X31194Y122618
X28908Y120840
X33099Y120967
X33226Y100647
X31194Y98996
X29035Y100647
X26114Y87058
X27638Y84899
X25987Y82740
X23447Y82613
X21796Y84772
X23447Y87058
X16208Y81740
X16208Y84899
X14557Y86931
X9985Y85026
X4778Y100647
X6810Y98996
X8969Y100647
X9223Y120967
X7191Y122491
X876Y125920
X949Y120421
X1041Y112895
X1857Y128476
X16208Y79835
X16208Y78565
X16208Y77295
X16208Y76025
X16208Y74755
X7826Y74755
X7826Y76025
X7826Y77295
X7826Y78565
X7826Y79835
X9477Y134302
X14811Y133159
X19129Y135191
X20653Y135191
X30559Y133921
X10620Y82994
X10620Y81724
X13287Y81724
X13287Y82867
X7826Y81724
X12017Y86931
X31702Y126301
X2111Y109553
X31702Y125301
X18367Y127841
X13660Y127296
X5010Y110730
X10950Y126063
X5007Y113330
X11788Y126063
X5032Y131524
X23349Y126825
X31956Y124031
X5002Y105690
X22113Y125788
X5002Y103150
X22812Y125301
X5002Y108230
X21655Y126677
X21372Y127968
X34201Y125387
X23849Y128603
X35512Y126190
X24367Y129269
X36782Y126698
X36655Y130762
X35512Y131549
X25352Y129619
X31575Y129638
X26876Y129873
X26622Y127841
X30559Y127841
X18494Y133810
X16817Y133816
X17656Y133810
X12652Y130762
X19383Y131778
X18367Y129746
X43416Y115830
X48618Y126444
X69700Y122618
X67414Y120840
X71605Y120967
X71732Y100647
X69700Y98996
X67541Y100647
X64620Y87058
X66144Y84899
X64493Y82740
X61953Y82613
X60302Y84772
X61953Y87058
X54714Y81740
X54714Y84899
X53063Y86931
X48491Y85026
X43284Y100647
X45316Y98996
X47475Y100647
X47729Y120967
X45697Y122491
X39382Y125920
X39455Y120421
X39547Y112895
X40363Y128476
X54714Y79835
X54714Y78565
X54714Y77295
X54714Y76025
X54714Y74755
X46332Y74755
X46332Y76025
X46332Y77295
X46332Y78565
X46332Y79835
X47983Y134302
X53317Y133159
X57635Y135191
X59159Y135191
X69065Y133921
X49126Y82994
X49126Y81724
X51793Y81724
X51793Y82867
X46332Y81724
X50523Y86931
X70208Y126301
X40617Y109553
X70208Y125301
X56873Y127841
X52166Y127296
X43516Y110730
X49456Y126063
X43513Y113330
X50295Y126063
X43538Y131524
X61855Y126825
X70462Y124031
X43508Y105690
X60620Y125788
X43508Y103150
X61318Y125301
X43508Y108230
X60161Y126677
X59878Y127968
X72707Y125387
X62355Y128603
X74018Y126190
X62874Y129269
X75288Y126698
X75161Y130762
X74018Y131549
X63858Y129619
X70081Y129638
X65382Y129873
X65128Y127841
X69065Y127841
X57000Y133810
X55324Y133816
X56162Y133810
X51158Y130762
X57889Y131778
X56873Y129746
X81925Y115830
X87127Y126444
X108209Y122618
X105923Y120840
X110114Y120967
X110241Y100647
X108209Y98996
X106050Y100647
X103129Y87058
X104653Y84899
X103002Y82740
X100462Y82613
X98811Y84772
X100462Y87058
X93223Y81740
X93223Y84899
X91572Y86931
X87000Y85026
X81793Y100647
X83825Y98996
X85984Y100647
X86238Y120967
X84206Y122491
X77891Y125920
X77964Y120421
X78056Y112895
X78872Y128476
X93223Y79835
X93223Y78565
X93223Y77295
X93223Y76025
X93223Y74755
X84841Y74755
X84841Y76025
X84841Y77295
X84841Y78565
X84841Y79835
X86492Y134302
X91826Y133159
X96144Y135191
X97668Y135191
X107574Y133921
X87635Y82994
X87635Y81724
X90302Y81724
X90302Y82867
X84841Y81724
X89032Y86931
X108717Y126301
X79126Y109553
X108717Y125301
X95382Y127841
X90675Y127296
X82025Y110730
X87965Y126063
X82022Y113330
X88803Y126063
X82047Y131524
X100364Y126825
X108971Y124031
X82017Y105690
X99128Y125788
X82017Y103150
X99827Y125301
X82017Y108230
X98670Y126677
X98387Y127968
X111216Y125387
X100864Y128603
X112527Y126190
X101383Y129269
X113797Y126698
X113670Y130762
X112527Y131549
X102367Y129619
X108590Y129638
X103891Y129873
X103637Y127841
X107574Y127841
X95509Y133810
X93833Y133816
X94671Y133810
X89667Y130762
X96398Y131778
X95382Y129746
X120434Y115830
X125636Y126444
X146718Y122618
X144432Y120840
X148623Y120967
X148750Y100647
X146718Y98996
X144559Y100647
X141638Y87058
X143162Y84899
X141511Y82740
X138971Y82613
X137320Y84772
X138971Y87058
X131732Y81740
X131732Y84899
X130081Y86931
X125509Y85026
X120302Y100647
X122334Y98996
X124493Y100647
X124747Y120967
X122715Y122491
X116400Y125920
X116473Y120421
X116565Y112895
X117381Y128476
X131732Y79835
X131732Y78565
X131732Y77295
X131732Y76025
X131732Y74755
X123350Y74755
X123350Y76025
X123350Y77295
X123350Y78565
X123350Y79835
X125001Y134302
X130335Y133159
X134653Y135191
X136177Y135191
X146083Y133921
X126144Y82994
X126144Y81724
X128811Y81724
X128811Y82867
X123350Y81724
X127541Y86931
X147226Y126301
X117635Y109553
X147226Y125301
X133891Y127841
X129184Y127296
X120534Y110730
X126474Y126063
X120531Y113330
X127312Y126063
X120556Y131524
X138873Y126825
X147480Y124031
X120526Y105690
X137637Y125788
X120526Y103150
X138336Y125301
X120526Y108230
X137179Y126677
X136896Y127968
X149725Y125387
X139373Y128603
X151036Y126190
X139892Y129269
X152306Y126698
X152179Y130762
X151036Y131549
X140876Y129619
X147099Y129638
X142400Y129873
X142146Y127841
X146083Y127841
X134018Y133810
X132342Y133816
X133180Y133810
X128176Y130762
X134907Y131778
X133891Y129746
X33091Y23060
X27889Y12446
X6807Y16272
X9093Y18050
X4902Y17923
X4775Y38243
X6807Y39894
X8966Y38243
X11887Y51832
X10363Y53991
X36999Y46100
X36999Y41900
X35699Y44000
X999Y41900
X999Y46100
X2299Y44000
X12014Y56150
X14554Y56277
X75508Y46100
X75508Y41900
X74208Y44000
X39508Y41900
X39508Y46100
X40808Y44000
X16205Y54118
X14554Y51832
X114015Y46100
X114015Y41900
X112715Y44000
X78015Y41900
X78015Y46100
X79315Y44000
X21793Y57150
X21793Y53991
X152523Y46100
X152523Y41900
X151223Y44000
X116523Y41900
X116523Y46100
X117823Y44000
X23444Y51959
X28016Y53864
X1002Y92790
X1002Y96990
X2302Y94890
X37002Y96990
X37002Y92790
X35702Y94890
X33223Y38243
X31191Y39894
X39508Y92790
X39508Y96990
X40808Y94890
X75508Y96990
X75508Y92790
X74208Y94890
X29032Y38243
X28778Y17923
X78017Y92790
X78017Y96990
X79317Y94890
X114017Y96990
X114017Y92790
X112717Y94890
X30810Y16399
X37125Y12970
X116526Y92790
X116526Y96990
X117826Y94890
X152526Y96990
X152526Y92790
X151226Y94890
M30